<?xml version="1.0" encoding="utf-8"?>
<!DOCTYPE svg PUBLIC "-//W3C//DTD SVG 1.0//EN" "http://www.w3.org/TR/2001/REC-SVG-20010904/DTD/svg10.dtd">
<svg version="1.0" xmlns="http://www.w3.org/2000/svg" width="231px" height="226px" viewBox="0 0 231 226" preserveAspectRatio="xMidYMid meet">
 <g fill="#ffffff">
  <path d="M0 113 l0 -113 115.50 0 115.50 0 0 113 0 113 -115.50 0 -115.50 0 0 -113z m111 76.50 c0 -9 -0.20 -14 -0.50 -14 -0.30 0 -0.50 5 -0.50 14 0 9 0.20 14 0.50 14 0.30 0 0.50 -5 0.50 -14z m14 0 c0 -7.70 -0.15 -14 -0.35 -14 -0.25 0 -0.40 6.30 -0.40 14 0 7.70 0.15 14 0.40 14 0.20 0 0.35 -6.30 0.35 -14z m25.70 12.65 c-0.50 -2 -0.70 -2.05 -0.70 -0.25 0 0.90 0.25 1.60 0.50 1.60 0.30 0 0.40 -0.55 0.20 -1.35z m11.80 -12.65 c0 -9 -0.20 -14 -0.50 -14 -0.30 0 -0.50 5 -0.50 14 0 9 0.20 14 0.50 14 0.30 0 0.50 -5 0.50 -14z m22 0 c0 -9 -0.20 -14 -0.50 -14 -0.30 0 -0.50 5 -0.50 14 0 9 0.20 14 0.50 14 0.30 0 0.50 -5 0.50 -14z m-125.25 0 c0 -6.05 -0.70 -6.25 -0.85 -0.25 -0.05 2.45 0.40 6.25 0.75 6.25 0.05 0 0.10 -2.70 0.10 -6z m20.15 0.25 c0 -1.35 -0.20 -3.15 -0.40 -4 -0.25 -0.95 -0.40 0.50 -0.40 4 0 3.50 0.15 4.95 0.40 4 0.20 -0.80 0.40 -2.60 0.40 -4z m-43.45 -0.35 c-0.05 -4.75 -0.10 -4.95 -0.55 -2.75 -0.45 2.10 -0.15 7.85 0.40 7.85 0.10 0 0.15 -2.30 0.15 -5.10z m49.50 0.25 c-0.05 -3.25 -0.20 -4.45 -0.45 -3.65 -0.70 2.15 -0.45 8.50 0.30 8.50 0.10 0 0.20 -2.20 0.15 -4.85z m59.05 -12.90 c0 -1 -0.25 -1.25 -1.10 -1.20 -0.85 0.05 -0.95 0.10 -0.25 0.30 0.45 0.10 0.85 0.65 0.85 1.20 0 0.50 0.10 0.95 0.25 0.95 0.15 0 0.25 -0.55 0.25 -1.25z m-43.75 -19.10 c3.40 -0.85 5.10 -1.60 3.60 -1.65 -1.50 0 -6.45 -2.80 -8.90 -4.95 -1.30 -1.10 -3.05 -3.20 -3.95 -4.60 l-1.65 -2.55 -1.20 3.10 c-1.75 4.75 -1.40 7.75 1.30 10.20 2.05 1.85 4.75 1.95 10.80 0.45z m38 -0.10 c0.80 -0.45 1.90 -1.55 2.40 -2.45 0.85 -1.50 0.90 -1.95 0.40 -4.60 -0.35 -1.65 -0.95 -3.80 -1.35 -4.80 l-0.75 -1.80 -1.40 2.20 c-2.60 4.10 -7 7.75 -11.45 9.40 l-2.25 0.85 2.45 0.80 c5.65 1.85 9.15 1.95 11.95 0.40z m-16.90 -8.35 c3.40 -1.70 7.65 -5.45 10.65 -9.30 0.55 -0.75 2.10 -1.70 3.50 -2.15 2.90 -0.95 7.80 -4.50 9.70 -6.95 1.70 -2.30 4.80 -8.65 6.60 -13.75 1.30 -3.75 1.55 -4.05 2.80 -4.05 1.20 0 1.40 -0.20 1.40 -1.50 0 -1.70 1.15 -2.50 3.65 -2.50 1.20 0 1.80 -0.25 2 -0.85 0.15 -0.50 1 -1.80 1.85 -2.90 2.10 -2.80 2.40 -5.15 1.05 -7.75 -0.55 -1.10 -1.05 -2.45 -1.05 -2.95 0 -1.20 -3.05 -1.80 -3.65 -0.75 -0.55 1 -3.65 0.90 -4.05 -0.10 -0.50 -1.30 -0.35 -3.60 0.25 -3.80 0.35 -0.10 -0.95 -1.25 -2.85 -2.55 -2.30 -1.60 -7.10 -3.80 -14.55 -6.80 -12.15 -4.90 -14.45 -6.10 -18.05 -9.30 -4.85 -4.35 -8.55 -11.75 -8.65 -17.15 0 -2.15 -0.20 -1.75 -1.75 3.65 -3.45 12.05 -6.90 16.60 -16.15 21.20 -2.65 1.35 -5.35 2.60 -6.05 2.80 -3 0.90 -12.80 5.90 -16.70 8.45 -2.35 1.55 -4.60 2.80 -5 2.80 -0.45 0 -0.80 0.40 -0.80 0.85 0 0.45 -0.60 1.70 -1.35 2.75 -1.55 2.30 -1.60 4.50 -0.20 7.35 0.55 1.05 1.70 2.50 2.55 3.20 0.80 0.70 1.50 1.45 1.50 1.70 0 0.25 0.90 0.35 1.95 0.25 3 -0.30 4.05 0.50 4.05 3.15 0 1.90 0.15 2.25 0.95 2.25 0.70 0 1.55 1.15 3.05 4.15 5.65 11.05 9 15.20 14.25 17.80 1.80 0.90 3.25 1.80 3.25 2.10 0 0.85 7.10 7.90 9.60 9.55 6.10 3.90 10.20 4.15 16.25 1.10z"/>
  <path d="M94.35 108.20 c-0.50 -0.50 -0.45 -3.30 0.10 -4.10 0.25 -0.45 1.20 -0.60 2.60 -0.50 l2.20 0.15 0 2.25 0 2.25 -2.25 0.15 c-1.25 0.10 -2.45 0 -2.65 -0.20z"/>
  <path d="M131.10 106.15 l0.15 -2.40 2.25 0 2.25 0 0.15 2.40 0.15 2.35 -2.55 0 -2.55 0 0.15 -2.35z"/>
 </g>
 <g fill="#fdd1be">
  <path d="M115.35 150.50 c-0.30 -1.20 -2.40 -1.35 -3.35 -0.25 -0.40 0.45 -1.50 0.75 -2.80 0.75 -1.85 0 -2.20 -0.15 -2.20 -0.95 0 -1.05 -0.95 -1.55 -3.05 -1.55 -1.40 0 -1.45 -0.10 -1.45 -2.35 0 -4.10 0.35 -4.65 2.70 -4.65 3 0 4.30 0.50 4.30 1.50 0 1 0.55 1.25 4.15 1.75 1.95 0.25 2.35 0.15 2.35 -0.45 0 -0.45 -0.25 -0.80 -0.55 -0.80 -0.30 0 -0.85 -0.30 -1.20 -0.70 -0.40 -0.35 -1.80 -0.85 -3.10 -1 -1.30 -0.20 -3.05 -0.65 -3.80 -0.95 -1.40 -0.60 -1.45 -0.65 -1.10 -3.85 0.20 -1.80 0.45 -3.35 0.60 -3.50 0.10 -0.15 2.30 -0.25 4.80 -0.25 3.15 0 4.60 0.20 4.75 0.65 0.25 0.75 2.10 0.80 2.10 0.05 0 -0.35 1.30 -0.40 4 -0.15 3.85 0.30 4 0.30 4 -0.75 0 -0.80 -0.30 -1.05 -1.25 -1.05 -0.70 0 -1.25 -0.20 -1.25 -0.45 0 -0.85 -1.80 -1.15 -6.85 -1.10 l-5.10 0.10 -0.20 -1.40 -0.20 -1.40 -0.10 1.45 -0.05 1.40 -3.45 -0.20 -3.45 -0.20 -0.25 1.55 c-0.15 0.95 0 1.65 0.45 1.90 0.40 0.20 0.70 1.15 0.70 2.05 0 1.40 -0.25 1.80 -1.50 2.30 -0.80 0.35 -2.15 0.50 -3 0.40 -0.80 -0.15 -1.50 -0.05 -1.50 0.20 0 0.65 -3.60 0.45 -5.95 -0.40 -3.55 -1.20 -4.05 -1.60 -4.05 -3.20 0 -1.35 -0.15 -1.45 -2.15 -1.60 l-2.10 -0.15 -0.15 -2.45 c-0.15 -2.65 0.80 -4.30 2.50 -4.30 0.50 0 0.90 -0.20 0.90 -0.50 0 -0.25 0.45 -0.50 0.95 -0.50 0.55 0 1.15 -0.20 1.30 -0.50 0.15 -0.25 1.40 -0.50 2.75 -0.50 2.55 0 3 -0.40 3 -2.80 0 -1.95 0.90 -3.20 2.25 -3.20 1.05 0 1.25 -0.25 1.25 -1.45 0 -1.10 0.30 -1.55 1.50 -2.05 1.90 -0.80 1.70 -1.10 -0.40 -0.70 -1.10 0.25 -1.60 0.60 -1.60 1.25 0 0.75 -0.35 0.95 -1.75 0.95 -1 0 -1.90 -0.30 -2 -0.60 -0.20 -0.45 -1.25 -0.60 -3.55 -0.50 -2.25 0.15 -3.45 0 -3.70 -0.40 -0.20 -0.35 -0.30 0.40 -0.15 1.60 0.15 1.40 0.05 2.40 -0.30 2.60 -0.30 0.20 -0.55 0.90 -0.55 1.60 0 0.70 -0.35 1.35 -0.75 1.50 -0.45 0.20 -0.75 0.95 -0.75 1.80 0 2.40 -0.80 3.40 -2.75 3.40 -1.80 0 -2.75 -1 -2.75 -2.95 0 -0.60 -0.35 -1.05 -0.75 -1.05 -0.50 0 -0.75 -0.55 -0.75 -1.75 0 -1.20 -0.25 -1.75 -0.75 -1.75 -1.50 0 -2.50 -4.60 -1.10 -5.15 0.30 -0.15 0 -0.30 -0.75 -0.30 -1.30 -0.05 -1.40 -0.20 -1.40 -2.05 0 -1.10 -0.20 -2 -0.50 -2 -0.25 0 -0.50 -0.35 -0.50 -0.75 0 -0.40 -0.20 -0.75 -0.45 -0.75 -0.25 0 -0.60 -0.50 -0.70 -1.10 -0.20 -1 -0.20 -0.95 -0.30 0.25 -0.05 1.30 -0.15 1.35 -2.85 1.35 -2.40 0 -2.95 -0.20 -4.25 -1.50 -1.30 -1.30 -1.50 -1.80 -1.35 -3.85 0.15 -2.05 0.30 -2.40 1.30 -2.55 1.65 -0.25 1.35 -1 -0.50 -1.20 -1.55 -0.15 -1.65 -0.25 -1.80 -2.45 -0.20 -3 0.50 -3.55 5.05 -3.85 l3.60 -0.20 -0.20 -2.05 c-0.10 -1.45 0.05 -2.10 0.65 -2.45 0.45 -0.25 0.80 -0.90 0.80 -1.40 0 -0.85 0.35 -1 2.25 -1 1.90 0 2.25 -0.15 2.25 -1 0 -1.15 1.40 -2 3.20 -2 0.75 0 1.30 -0.30 1.30 -0.65 0 -0.40 0.95 -1 2.15 -1.30 1.15 -0.35 3.05 -1.10 4.20 -1.60 1.15 -0.50 2.75 -0.95 3.55 -0.95 1.90 0 5.60 -1.85 5.60 -2.75 0 -1 2 -1.75 6 -2.25 1.75 -0.25 3.30 -0.65 3.40 -0.95 0.10 -0.30 0.45 -0.55 0.80 -0.55 0.45 0 0.55 -0.65 0.25 -2.60 -0.70 -4.85 -0.55 -6.45 0.55 -6.75 0.80 -0.20 1 -0.70 1 -2.45 0 -2.40 0.85 -3.20 3.35 -3.20 1.20 0 1.55 0.35 2.55 2.65 0.60 1.40 1.10 3.10 1.10 3.75 0 0.60 0.30 1.10 0.70 1.10 0.85 0 1.30 1.05 1.30 3 0 1.40 0.90 1.95 3.25 2 1.15 0.05 3.25 1.65 3.25 2.45 0 0.30 0.35 0.55 0.75 0.55 1.25 0 4.25 1.65 4.25 2.35 0 0.40 0.60 0.65 1.45 0.65 2.25 0 3.05 0.50 3.10 1.95 0 0.70 0.15 1 0.30 0.70 0.25 -0.75 3.45 -0.90 3.85 -0.20 0.15 0.25 1.10 0.60 2.05 0.75 0.95 0.20 1.75 0.55 1.75 0.80 0 0.30 0.40 0.50 0.95 0.50 1.95 0 4.05 1.10 4.05 2.10 0 1.50 1.10 2.30 2.90 2 2.40 -0.35 4.10 0.25 4.10 1.40 0 0.55 0.25 1 0.50 1 0.30 0 0.50 1.35 0.50 3 l0 3 3.25 0 3.25 0 0 1.50 c0 1.20 0.20 1.50 1.15 1.50 2.90 0 3.35 0.45 3.35 3.30 0 2.05 -0.20 2.70 -0.75 2.70 -0.55 0 -0.75 0.55 -0.75 2.15 0 1.75 -0.30 2.45 -1.45 3.55 -1.35 1.30 -1.75 1.40 -4.45 1.20 -2.85 -0.20 -2.95 -0.15 -3.50 1.20 -0.40 1.15 -0.80 1.40 -2.25 1.40 -1.55 0 -1.70 0.10 -1.45 1.25 0.10 0.70 0.40 1.25 0.65 1.25 0.25 0 0.45 1.15 0.45 2.50 0 2.50 0 2.50 -1.60 2.50 -0.90 0 -2 0.25 -2.40 0.50 -0.60 0.40 -0.55 0.50 0.40 0.50 0.95 0 1.10 0.25 1.10 2.20 0 1.15 -0.25 2.85 -0.55 3.75 -0.45 1.25 -0.80 1.55 -2 1.55 -1.30 0 -1.45 0.15 -1.45 1.75 0 1.05 -0.25 1.75 -0.60 1.75 -0.35 0 -1.45 0.25 -2.50 0.50 -1.65 0.45 -1.85 0.75 -2.15 2.65 -0.20 1.15 -0.65 2.25 -0.95 2.45 -0.95 0.65 -4.15 0.45 -4.75 -0.30 -0.45 -0.55 -0.85 -0.45 -2.10 0.75 -1.55 1.45 -4.65 2.05 -5.05 0.95 -0.05 -0.25 -0.90 -0.60 -1.75 -0.80 -1.30 -0.25 -1.65 -0.15 -1.65 0.50 0 0.45 -0.35 0.80 -0.75 0.80 -0.40 0 -0.75 0.20 -0.75 0.45 0 0.25 -0.50 0.55 -1.10 0.65 -0.75 0.10 -1.20 0.55 -1.30 1.30 -0.15 1 0.05 1.10 1.85 1.10 l2.05 0 -0.05 2.40 c0 2.25 -0.10 2.40 -2.55 4 -1.40 0.85 -2.70 1.60 -2.95 1.60 -0.25 0 -0.45 0.25 -0.45 0.50 0 0.30 -0.75 0.50 -1.70 0.50 -1.25 0 -1.75 -0.25 -1.95 -1z m24.15 -23.70 c0 -0.80 1.05 -1.30 2.80 -1.30 1.10 0 1.20 -0.15 0.90 -1.10 -0.15 -0.65 -0.65 -1.50 -1.05 -2 -0.50 -0.55 -0.75 -2.20 -0.80 -5.25 -0.05 -2.40 -0.35 -4.65 -0.60 -4.95 -0.30 -0.30 -1.45 -0.70 -2.65 -0.85 l-2.10 -0.35 0 1.70 c0 2.85 -0.80 4.30 -2.35 4.30 -1.05 0 -1.20 0.15 -0.75 0.60 0.35 0.35 0.60 1.35 0.60 2.20 0 1.40 0.20 1.65 1.40 1.80 1.15 0.15 1.35 0.40 1.50 2 0.10 1.30 0.45 1.95 1.15 2.15 0.50 0.20 0.95 0.65 0.95 1.05 0 0.40 0.25 0.70 0.50 0.70 0.30 0 0.50 -0.30 0.50 -0.70z m-23 -0.55 c0 -0.50 0.50 -0.75 1.70 -0.75 0.95 0 1.90 -0.20 2.05 -0.50 0.15 -0.25 0.75 -0.50 1.30 -0.50 0.70 0 0.95 -0.35 0.95 -1.50 0 -1.40 -0.10 -1.50 -2.05 -1.50 -1.60 0 -2.10 0.20 -2.30 1 -0.15 0.55 -0.60 1 -0.95 1 -0.40 0 -0.70 0.35 -0.70 0.75 0 0.55 -0.60 0.75 -2.25 0.75 -1.25 0 -2.25 0.25 -2.25 0.50 0 0.30 0.80 0.50 1.75 0.50 0.95 0 1.75 0.25 1.75 0.50 0 0.30 0.25 0.50 0.50 0.50 0.30 0 0.50 -0.35 0.50 -0.75z m-33.50 -7.80 c-0.65 -2.20 -0.85 -2.25 -1.10 -0.25 -0.15 1.45 -0.05 1.80 0.65 1.80 0.75 0 0.80 -0.25 0.45 -1.55z m41.50 -2.20 c0 -0.40 -0.20 -0.75 -0.50 -0.75 -0.25 0 -0.50 0.35 -0.50 0.75 0 0.40 0.25 0.75 0.50 0.75 0.30 0 0.50 -0.35 0.50 -0.75z m-43 -2.75 c0 -0.65 -0.35 -1 -1 -1 -1.25 0 -1.35 1.35 -0.10 1.65 0.45 0.15 0.90 0.25 1 0.30 0.05 0 0.10 -0.40 0.10 -0.95z m25.25 -5.40 l0.35 -5.40 2.10 -0.85 c2.55 -1.05 4.50 -1.10 5.50 -0.10 0.95 1 1.15 0.95 1.45 -0.25 0.20 -0.85 0.70 -1 2.80 -1 1.60 0 2.65 0.25 2.80 0.65 0.20 0.40 1.05 0.55 2.50 0.45 2.35 -0.20 3.15 -1.10 1 -1.10 -1.10 0 -1.25 -0.20 -1.25 -2 0 -1.80 -0.10 -2 -1.25 -2 -0.70 0 -1.25 0.25 -1.25 0.50 0 0.30 -0.90 0.50 -2 0.50 -1.10 0 -2 0.25 -2 0.50 0 0.30 -2.15 0.50 -5.50 0.50 l-5.50 0 0 -1.25 c0 -0.80 -0.30 -1.25 -0.75 -1.25 -0.45 0 -0.95 -0.40 -1.15 -0.85 -0.55 -1.35 -0.95 2.70 -0.50 5.10 0.45 2.50 0.50 7.40 0.10 8.45 -0.15 0.45 -0.60 0.80 -1 0.80 -0.40 0 -0.70 0.25 -0.70 0.50 0 0.30 0.45 0.50 1 0.50 0.80 0 1 0.35 1 1.50 0 1.15 0.25 1.50 0.95 1.50 0.85 0 1 -0.55 1.30 -5.40z m28.75 0.50 c0 -1.60 1.60 -3.60 2.90 -3.65 0.50 0 0.60 -0.15 0.25 -0.30 -0.35 -0.10 -0.65 -0.50 -0.65 -0.80 -0.05 -1.60 -3.50 -3.75 -3.50 -2.20 0 0.90 -1.05 1.35 -3.05 1.35 -1.10 0 -1.60 0.30 -1.95 1.30 -0.65 1.70 -0.65 1.70 0.55 1.70 0.70 0 1.20 0.50 1.55 1.40 0.95 2.50 3.90 3.40 3.90 1.20z m13.20 -1.60 c0.20 -1.60 0.20 -4.65 0 -6.75 -0.30 -3.20 -0.45 -3.75 -1.25 -3.75 -0.55 0 -0.95 0.25 -0.95 0.50 0 0.30 -0.30 0.50 -0.65 0.50 -0.45 0 -0.55 0.60 -0.45 2 0.15 1.55 0.40 2 1.15 2 0.80 0 0.95 0.40 0.95 2.50 0 1.40 -0.20 2.50 -0.50 2.50 -0.25 0 -0.50 0.80 -0.50 1.75 0 1.40 0.20 1.75 0.95 1.75 0.75 0 1 -0.50 1.25 -3z m-50.45 0.20 c0.70 -0.15 1.25 -0.40 1.25 -0.45 0 -0.75 -0.75 -1.75 -1.25 -1.75 -0.35 0 -0.75 -0.45 -0.90 -0.95 -0.20 -0.80 -0.80 -1 -3.30 -1.15 -1.65 -0.05 -3.05 0 -3.05 0.25 0 0.20 -0.35 0.35 -0.75 0.35 -0.45 0 -0.75 0.45 -0.75 1.25 0 0.95 0.40 1.40 1.75 1.95 0.95 0.40 1.75 1 1.75 1.25 0 0.30 0.70 0.55 1.50 0.55 0.85 0 1.50 0.25 1.55 0.65 0 0.30 0.20 0.10 0.45 -0.50 0.25 -0.60 1.05 -1.25 1.75 -1.45z m-14.40 -0.95 c0.30 -1.25 0.30 -2.25 0.10 -2.25 -0.25 0 -0.45 -1.25 -0.45 -2.75 0 -1.50 -0.20 -2.75 -0.50 -2.75 -0.25 0 -0.50 -0.70 -0.50 -1.50 0 -1.60 -1.15 -2.55 -2.05 -1.65 -0.25 0.25 -0.30 3.10 -0.10 6.80 l0.30 6.35 1.35 0 c1.15 0 1.40 -0.25 1.85 -2.25z m59.15 -11.50 c0 -0.40 -0.20 -0.75 -0.50 -0.75 -0.25 0 -0.50 -0.35 -0.50 -0.75 0 -0.40 -0.45 -0.75 -1 -0.75 -1.30 0 -1.25 0.40 0.15 1.75 1.35 1.35 1.85 1.50 1.85 0.50z m-54 -2.60 c0 -0.35 -0.40 -0.65 -0.90 -0.65 -0.75 0 -0.90 0.30 -0.70 1.50 0.20 1.40 0.25 1.45 0.90 0.65 0.35 -0.50 0.70 -1.20 0.70 -1.50z m8.30 -0.95 c1.95 -0.50 1.40 -1.10 -1.60 -1.70 -2 -0.45 -2.90 -0.85 -3.05 -1.50 -0.35 -1.25 -1.65 -0.70 -1.65 0.65 0 0.55 -0.35 1.45 -0.80 1.90 -0.80 0.90 -0.70 0.90 1.75 0.60 2 -0.25 2.55 -0.15 2.55 0.45 0 0.40 0.30 1 0.65 1.35 0.50 0.50 0.65 0.40 0.75 -0.40 0.10 -0.60 0.70 -1.20 1.40 -1.35z m27.20 0.55 c0 -0.40 0.30 -0.75 0.65 -0.75 0.40 0 0.35 -0.20 -0.15 -0.50 -1.15 -0.75 -1.35 -0.60 -1.60 0.75 -0.20 0.85 -0.05 1.25 0.40 1.25 0.40 0 0.70 -0.35 0.70 -0.75z m-19 -2.75 c0 -2.75 0.75 -3.50 3.45 -3.50 0.85 0 1.55 -0.25 1.55 -0.55 0 -0.85 10.15 0.20 11.40 1.15 0.30 0.30 0.60 0.95 0.60 1.45 0 0.55 0.25 0.95 0.50 0.95 0.30 0 0.50 -0.45 0.50 -0.95 0 -0.55 0.50 -1.35 1.10 -1.75 0.60 -0.45 0.90 -0.80 0.60 -0.80 -0.30 0 -0.85 -0.55 -1.20 -1.25 -0.55 -1.05 -1 -1.25 -3.05 -1.25 -2.30 0 -4.95 -0.80 -4.95 -1.50 0 -0.15 -1.90 -0.30 -4.25 -0.30 -2.35 0.05 -4.25 0.20 -4.25 0.45 0 0.20 -0.65 0.35 -1.45 0.35 l-1.40 0 0.05 5.20 c0 2.85 0.20 5.10 0.45 4.95 0.20 -0.10 0.35 -1.30 0.35 -2.65z m30.65 2.15 c1 -0.20 1.35 -0.55 1.35 -1.40 0 -1.05 -0.20 -1.15 -2.85 -1.05 -1.60 0 -3.40 -0.15 -4 -0.35 -1 -0.35 -1.15 -0.25 -1.15 0.85 0 1 0.40 1.50 1.65 2 0.85 0.40 2.05 0.60 2.60 0.45 0.55 -0.10 1.60 -0.35 2.40 -0.50z"/>
 </g>
 <g fill="#fdcabd">
  <path d="M109.40 151.65 c-0.80 -0.10 -1.40 -0.45 -1.40 -0.70 0 -0.25 -0.55 -0.45 -1.20 -0.45 -0.60 0 -1.75 -0.55 -2.50 -1.25 -0.75 -0.70 -1.55 -1.25 -1.80 -1.25 -0.20 0 -1.55 -1.15 -2.95 -2.60 -2.05 -2.05 -2.55 -2.95 -2.55 -4.25 0 -1.35 0.20 -1.65 1.05 -1.65 0.55 0 0.85 -0.20 0.70 -0.50 -0.15 -0.25 -1.55 -0.50 -3.05 -0.50 -2.50 0 -2.70 -0.10 -2.70 -1.15 0 -0.90 0.25 -1.15 1.15 -1.15 0.60 0.05 1.40 0.35 1.75 0.70 0.35 0.30 1.05 0.60 1.50 0.60 0.50 0 0.65 -0.15 0.30 -0.40 -1.20 -0.85 -3.20 -4.05 -2.75 -4.35 0.30 -0.15 0.55 0 0.60 0.35 0.05 0.75 3.35 3.65 3.75 3.25 0.15 -0.15 0.40 -1.15 0.55 -2.30 0.15 -1.10 0.60 -2.10 1.05 -2.30 1.05 -0.40 1.50 0.20 0.60 0.80 -0.65 0.45 -0.65 0.50 0 0.30 1 -0.25 1.85 -3.20 1.15 -3.90 -0.60 -0.60 -2.65 -0.15 -2.65 0.60 0 0.25 0.45 0.45 0.95 0.45 0.55 0 1.15 0.25 1.35 0.60 0.25 0.40 0.10 0.45 -0.50 0.25 -1.10 -0.45 -2.95 0.50 -2.50 1.25 0.20 0.30 0.15 0.45 -0.10 0.30 -0.25 -0.10 -1.15 -0.55 -2.05 -0.90 -1.85 -0.80 -2.50 -2.85 -1.25 -3.85 0.70 -0.50 0.75 -0.60 0.10 -0.65 -0.55 0 -0.60 -0.10 -0.15 -0.40 0.40 -0.25 -0.20 -0.40 -1.35 -0.35 -1.05 0 -2.10 0.20 -2.30 0.40 -0.20 0.20 -0.80 0.35 -1.30 0.35 -0.50 0 -0.90 0.25 -0.90 0.50 0 0.30 -0.40 0.50 -0.90 0.50 -1.15 0 -2.60 1.50 -2.60 2.65 0 0.95 1 1.65 1.45 1 0.55 -0.85 3.25 -1.95 4.80 -1.90 2.05 0 1.95 1.35 -0.10 2 -1.35 0.35 -1.65 0.70 -1.65 1.85 0 0.75 0.40 1.55 0.90 1.85 0.70 0.40 0.50 0.50 -1.05 0.55 -2.20 0 -4.85 -1.70 -4.85 -3.10 0 -0.50 -0.35 -0.90 -0.75 -0.90 -1 0 -3.75 -4.15 -3.75 -5.70 0 -0.80 -0.30 -1.30 -0.70 -1.30 -0.80 0 -3.30 -4.50 -3.30 -6 0 -0.55 -0.20 -1 -0.45 -1 -0.50 0 -2.70 -4.45 -3.20 -6.60 -0.35 -1.35 -0.50 -1.40 -3.35 -1.40 -2.85 0 -3 -0.05 -3 -1.20 0 -1.15 0.15 -1.20 1.75 -0.95 1.55 0.25 1.75 0.15 1.75 -0.80 0 -1.65 -0.90 -3.05 -1.75 -2.75 -0.40 0.20 -0.85 -0.05 -1.05 -0.50 -0.20 -0.45 -0.75 -0.70 -1.35 -0.60 -0.85 0.15 -1.10 0.50 -1 1.50 0.05 1.05 -0.15 1.30 -1.05 1.30 -1.60 0 -2.30 -1.85 -2.30 -6 0 -3.15 0.10 -3.50 1 -3.50 0.75 0 1 -0.35 1 -1.25 0 -1.15 0.20 -1.25 2.25 -1.25 l2.25 0 0 -2 c0 -1.85 0.15 -2.10 3.05 -4 4.05 -2.65 5.65 -3.50 6.95 -3.50 0.55 0 1 -0.20 1 -0.40 0 -0.40 0.35 -0.60 8.60 -4.05 5.65 -2.40 7.90 -3.60 10.75 -5.90 1.15 -0.90 2.65 -1.65 3.35 -1.65 1.05 0 1.25 -0.25 1.40 -1.60 0.10 -1.10 0.50 -1.80 1.25 -2.15 0.70 -0.30 1.15 -1.05 1.30 -2.25 0.15 -0.95 1 -3.85 1.90 -6.35 1.65 -4.60 1.65 -4.65 3.30 -4.65 2 0 2.30 0.55 2 3.80 -0.15 1.95 -0.25 2.20 -0.55 1.35 -0.35 -0.95 -0.60 -1.05 -1.40 -0.60 -0.55 0.30 -0.85 0.85 -0.70 1.25 0.45 1.15 -0.25 3.70 -1.05 3.70 -1.05 0 -1.45 1.55 -0.50 2.10 0.50 0.25 0.85 0.80 0.85 1.15 0 0.40 0.20 0.75 0.45 0.75 0.75 0 1 -1.35 0.40 -1.95 -0.45 -0.45 -0.20 -0.45 1.05 0 0.85 0.30 1.60 0.70 1.65 0.85 0.10 1 0.50 2.95 0.70 3.45 0.30 0.85 1.75 0.85 1.85 0.05 0.25 -2.25 0.20 -3.40 -0.20 -3.40 -0.25 0 -0.35 -0.20 -0.15 -0.45 0.15 -0.25 -0.45 -0.55 -1.35 -0.65 -1.50 -0.15 -1.55 -0.20 -0.70 -1.05 0.50 -0.50 0.75 -1.20 0.60 -1.60 -0.20 -0.55 0.10 -0.75 0.90 -0.75 0.85 0 1.55 0.55 2.25 1.65 0.55 0.85 1.80 2.40 2.75 3.30 1.05 1 1.80 2.25 1.80 2.90 0 0.90 0.30 1.15 1.20 1.15 1.95 0 2.80 0.55 2.80 1.80 0 1 -0.20 1.15 -1.55 0.95 -1.65 -0.20 -3.30 -1.25 -2 -1.25 1.25 0 -1.65 -1.85 -3.25 -2.10 -1.85 -0.25 -2.80 0.65 -2.50 2.35 0.15 0.85 0 1.40 -0.50 1.60 -0.95 0.35 -0.95 3.15 0.05 3.15 0.40 0 0.75 0.25 0.75 0.60 0 0.30 0.15 0.45 0.30 0.25 0.20 -0.15 0.65 0 1.05 0.40 0.40 0.40 1.35 0.75 2.15 0.75 1.40 0 2 -0.75 2 -2.40 0 -0.65 0.55 -0.90 2.60 -1 3.05 -0.15 3.40 -0.35 2.10 -1.35 -0.90 -0.65 -0.85 -0.70 0.90 -0.75 2.30 0 3.40 0.40 3.40 1.30 0 0.45 0.55 0.70 1.55 0.70 2.05 0 10.95 3.55 10.95 4.35 0 0.40 0.65 0.65 1.80 0.65 2.20 0 6.70 1.90 6.70 2.80 0 0.40 0.40 0.70 0.95 0.70 0.50 0 1.95 0.80 3.25 1.75 1.95 1.55 2.30 2.05 2.30 3.50 0 1.50 0.15 1.75 1.20 1.75 1.95 0 4.20 1 5 2.25 0.95 1.40 1.10 8.25 0.30 9.80 -0.65 1.15 -3.15 1.35 -2.70 0.20 0.20 -0.45 0 -0.75 -0.50 -0.75 -0.55 0 -0.80 -0.45 -0.80 -1.45 0 -1.25 0.25 -1.55 1.50 -1.80 1.90 -0.40 2.15 -2.45 0.40 -2.95 -1.90 -0.50 -2.90 -0.35 -2.90 0.45 0 0.40 -0.55 1.30 -1.25 1.95 -1.05 1.05 -1.20 1.45 -0.75 2.30 0.30 0.55 0.75 1 1 1 0.25 0 0.35 0.30 0.20 0.65 -0.15 0.40 -0.85 0.55 -1.95 0.45 -1.60 -0.20 -1.75 -0.10 -1.75 1.05 0 1.10 0.30 1.30 2 1.60 1.40 0.25 2 0.60 2 1.15 0 0.95 -2.10 2.10 -3.80 2.10 -0.95 0 -1.30 0.55 -2.25 3.75 -0.65 2.05 -1.35 3.75 -1.55 3.75 -0.25 0 -0.40 0.45 -0.40 1 0 1.55 -2.20 6.50 -2.85 6.50 -0.35 0 -0.65 0.55 -0.65 1.25 0 2.90 -5.10 8.45 -9.75 10.55 -1.50 0.70 -4.15 1.45 -5.85 1.65 -1.75 0.25 -2.75 0.45 -2.25 0.50 0.60 0.05 0.85 0.50 0.85 1.75 0 1.45 -0.45 2.15 -3 4.45 -4.45 4.15 -7.65 5.50 -13.50 5.65 -2.60 0.05 -5.35 0 -6.10 -0.15z m9.35 -3 c0.55 -0.35 1.85 -1.15 2.85 -1.75 2.85 -1.70 2.25 -3.35 -1.20 -3.40 -1.25 0 -2.90 1.75 -2.95 3.15 0 0.60 -0.15 0.80 -0.30 0.50 -0.10 -0.35 -0.70 -0.60 -1.30 -0.60 -0.80 0.05 -0.90 0.15 -0.25 0.30 0.45 0.10 1 0.90 1.15 1.75 0.20 0.85 0.50 1.35 0.70 1.10 0.15 -0.25 0.75 -0.75 1.30 -1.05z m-8.20 -0.05 c0.40 -0.65 1 -0.85 1.80 -0.70 1.15 0.20 1.20 0.15 0.70 -0.85 -0.65 -1.20 -1.15 -1.40 -0.75 -0.30 0.35 0.90 0 0.95 -0.90 0.10 -0.35 -0.30 -1.30 -0.85 -2.15 -1.15 -0.95 -0.30 -1.45 -0.80 -1.45 -1.35 0.05 -0.45 -0.15 -0.90 -0.50 -0.90 -2.35 -0.30 -2.75 -0.25 -2.55 0.10 0.15 0.20 0.05 0.50 -0.25 0.70 -0.25 0.15 -0.50 0.85 -0.50 1.55 0 1.05 0.20 1.15 1.20 0.90 1.45 -0.35 3.95 1.15 3.60 2.10 -0.40 1.05 1.10 0.85 1.75 -0.20z m7.15 -7.85 c0.65 -0.65 1.30 -1.10 1.45 -0.90 0.20 0.15 0.40 0.05 0.40 -0.25 0.10 -0.75 0.30 -1.55 0.45 -1.70 0.05 -0.10 0.20 -0.80 0.30 -1.60 0.25 -1.35 0.20 -1.35 -0.60 -0.55 -0.75 0.70 -0.75 0.90 -0.15 1.30 0.55 0.35 0.45 0.45 -0.40 0.45 -0.60 0 -1.40 -0.35 -1.85 -0.75 -0.40 -0.40 -1.10 -0.75 -1.50 -0.75 -0.45 0 -0.80 -0.20 -0.80 -0.45 0 -0.65 -3.25 -1.15 -5.30 -0.75 -1.65 0.30 -1.80 0.45 -1.60 1.80 0.15 0.80 0.05 1.55 -0.25 1.75 -0.80 0.45 1.85 1.50 2.75 1.05 1 -0.50 2.50 0 2.05 0.75 -0.20 0.30 0.15 0.40 1.05 0.15 0.80 -0.20 1.30 -0.10 1.30 0.25 0 0.30 0.35 0.45 0.70 0.30 0.50 -0.20 0.65 -0.05 0.45 0.45 -0.40 1.05 0.25 0.85 1.55 -0.55z m15.30 -5.80 c0 -0.25 -0.20 -0.45 -0.45 -0.45 -0.25 0 -0.45 -0.75 -0.40 -1.70 0.05 -0.90 0.35 -1.60 0.60 -1.50 3.15 1.05 3.30 1.20 2.75 2.20 -0.40 0.75 -0.40 1 0.05 1 0.35 0 1 0.35 1.45 0.75 0.50 0.45 1.25 0.65 1.70 0.45 0.95 -0.35 1.10 -1.20 0.20 -1.20 -0.50 0 -0.50 -0.10 0 -0.40 0.80 -0.50 1.20 -2.60 0.55 -2.60 -0.30 0 -0.40 -0.20 -0.25 -0.45 0.15 -0.20 -0.30 -0.65 -0.95 -0.95 -0.70 -0.35 -1.25 -1 -1.25 -1.55 0 -1.30 -1.35 -1.70 -2.65 -0.80 -1.15 0.80 -3.10 1.05 -2.60 0.30 0.40 -0.65 -1.15 -2.05 -2.30 -2.05 -0.85 0 -1.20 -0.50 -1 -1.60 0 -0.20 -0.40 -1.50 -0.95 -2.90 -1.25 -3.10 -1.25 -3.15 0 -2.50 0.55 0.30 1 1.05 1 1.75 0 1 0.20 1.15 1.35 0.95 2.60 -0.50 2.85 -1.40 0.90 -3.10 -0.75 -0.65 -1.15 -1.40 -0.95 -1.75 0.25 -0.45 0.20 -0.45 -0.35 0.05 -0.85 0.80 -1.45 0.75 -1.45 -0.15 0 -0.40 0.45 -0.95 1 -1.25 1 -0.55 1.40 -2.50 0.50 -2.50 -0.25 0 -0.50 0.45 -0.50 1 0 0.80 -0.35 1 -1.55 1 -1.40 0 -1.50 0.10 -1.25 1.55 0.20 1.25 0 1.60 -0.95 1.95 -1.35 0.50 -1.55 2.65 -0.30 4.10 1.15 1.35 1.15 3.05 0 2.75 -0.55 -0.15 -0.95 -0.05 -0.95 0.20 0 0.25 -0.30 0.45 -0.65 0.45 -1 0 -4.85 1.95 -4.85 2.50 0 0.40 2.40 -0.10 3.50 -0.75 0.25 -0.15 0.50 0 0.50 0.40 0 0.85 2.50 1.50 2.50 0.65 0.05 -0.65 2.45 -2.50 2.80 -2.15 0.15 0.10 -0.10 0.55 -0.50 1 -0.40 0.40 -0.60 0.85 -0.45 1.05 0.20 0.15 0.05 0.30 -0.35 0.30 -0.50 0 -0.50 0.15 0 0.75 0.35 0.40 0.90 0.75 1.25 0.75 0.45 0 0.55 0.55 0.40 1.80 -0.30 2.30 0.20 4.20 1.10 4.20 0.40 0 0.75 0.25 0.75 0.55 0 0.30 0.70 0.05 1.50 -0.55 0.85 -0.60 1.50 -1.30 1.50 -1.55z m-29.30 0.50 c-0.10 -0.25 -0.70 -0.05 -1.20 0.45 -1.30 1.10 -1.25 1.20 0.25 0.50 0.65 -0.30 1.10 -0.75 0.95 -0.95z m38.95 -5.40 c0.20 -0.05 0.85 -0.05 1.50 -0.10 0.60 0 0.80 -0.15 0.50 -0.30 -0.40 -0.15 -0.55 -0.70 -0.35 -1.45 0.25 -0.95 0.10 -1.20 -0.70 -1.20 -1.55 0 -2.60 0.55 -2.60 1.30 0 0.40 -0.20 0.70 -0.45 0.70 -0.35 0 -0.40 0.70 -0.10 1.90 0.05 0.05 0.45 -0.10 0.95 -0.35 0.45 -0.25 1 -0.45 1.25 -0.50z m-32.55 -2.55 c0.30 -2 -0.75 -2.95 -2.20 -2.05 -0.55 0.35 -0.85 0.40 -0.70 0.10 0.20 -0.25 -0.15 -0.80 -0.75 -1.20 -0.60 -0.45 -0.80 -0.80 -0.45 -0.95 0.45 -0.15 0.40 -0.35 -0.15 -0.80 -0.60 -0.55 -0.90 -0.30 -1.90 1.25 -1.15 1.95 -1.25 3 -0.40 3.90 0.35 0.35 0.40 0.20 0.20 -0.35 -0.25 -0.65 -0.10 -0.90 0.50 -0.90 0.45 0 0.95 0.45 1.10 0.95 0.25 1.05 1.05 1.40 3.20 1.50 1.10 0.05 1.35 -0.20 1.55 -1.45z m38.90 -4.60 c0 -0.55 -0.60 -0.90 -2.05 -1.15 -1.45 -0.25 -2.15 -0.65 -2.30 -1.30 -0.25 -1 -0.75 -1.20 -1.30 -0.60 -0.20 0.15 0 0.70 0.45 1.20 0.45 0.50 0.90 1.80 1.05 2.90 0.25 1.70 0.45 2 1.60 2.15 1 0.10 1.45 -0.15 1.90 -1.10 0.35 -0.70 0.60 -1.60 0.65 -2.10z m-64.75 0.10 c-0.40 -1.55 -0.45 -1.60 -1.45 -1.20 -0.95 0.35 -1.05 1.80 -0.25 3.30 0.55 1.05 0.60 1.05 1.30 0.10 0.40 -0.55 0.55 -1.45 0.40 -2.20z m18.10 1.60 l1 -1.35 -1.55 -1.50 c-0.85 -0.85 -1.85 -1.50 -2.20 -1.50 -0.85 0 -1.65 1.30 -1.20 2 0.50 0.75 0.40 1.95 -0.15 2.50 -0.30 0.30 -0.45 0.45 -0.35 0.45 0.10 -0.05 0.75 0.10 1.50 0.30 0.75 0.25 1.50 0.45 1.65 0.45 0.15 0.05 0.70 -0.55 1.30 -1.35z m14.90 0.95 c0.15 -0.30 -0.50 -0.35 -1.60 -0.20 -2.50 0.40 -2.75 0.65 -0.50 0.65 1 0 1.90 -0.20 2.10 -0.45z m17.30 -2.20 c-0.25 -0.25 -0.85 -0.35 -1.30 -0.15 -0.65 0.25 -0.70 0.50 -0.20 1.40 0.55 1.05 0.60 1.05 1.25 0.15 0.45 -0.60 0.55 -1.10 0.25 -1.40z m-19.40 -0.90 c0.15 -0.60 0.50 -0.90 0.75 -0.75 0.25 0.15 0.60 -0.20 0.75 -0.75 0.20 -0.75 0.10 -0.95 -0.40 -0.75 -0.40 0.15 -0.85 0.05 -0.95 -0.15 -0.15 -0.25 -0.85 -0.35 -1.55 -0.30 -1.70 0.20 -1.15 -0.55 0.75 -0.90 1.05 -0.25 1.50 -0.60 1.50 -1.35 0 -0.85 -0.30 -1 -2.05 -1 -1.80 0 -2 -0.15 -1.95 -1.10 0.20 -2.05 0 -2.40 -1.20 -2.40 -1.40 0 -2.10 -0.80 -1.90 -2.10 0.10 -0.50 -0.10 -0.90 -0.35 -0.90 -0.70 0 -0.70 0.20 0 3.60 0.45 2.15 0.80 2.90 1.65 3.15 0.55 0.20 1.25 0.35 1.45 0.30 0.25 -0.05 0.35 0.20 0.20 0.55 -0.10 0.35 -0.60 0.60 -1.05 0.60 -0.45 -0.05 -0.80 0.10 -0.80 0.35 0 0.25 -0.55 0.35 -1.20 0.15 -0.90 -0.20 -1.30 -0.05 -1.50 0.70 -0.60 1.80 0.75 3.55 1.40 1.80 0.15 -0.40 0.50 -0.65 0.75 -0.50 0.25 0.20 0.55 0.10 0.65 -0.20 0.20 -0.65 2.65 0.60 2.70 1.40 0.05 0.35 0.10 0.85 0.15 1.10 0.10 0.95 1.95 0.50 2.20 -0.55z m-19.55 -0.65 c0.70 -1.05 0.40 -2.35 -0.85 -3.55 -1.45 -1.50 -2.45 -1.55 -3.75 -0.25 -1.15 1.15 -1.25 2 -0.35 3.10 1.45 1.80 4 2.20 4.95 0.70z m45.75 -2.50 c-1.10 -1.65 -2.15 -2.05 -3.70 -1.50 -1.15 0.40 -1.45 0.80 -1.55 2.30 -0.15 1.80 -0.10 1.85 1.75 2 2.60 0.20 4.50 -1.30 3.50 -2.80z m-34.35 -1.15 c0 -1.60 -0.25 -1.40 -0.70 0.50 -0.20 0.95 -0.15 1.30 0.20 1.10 0.25 -0.15 0.50 -0.90 0.50 -1.60z m15.20 1.05 c0.15 -0.40 0 -0.70 -0.25 -0.70 -0.30 0 -0.45 -0.45 -0.30 -1 0.15 -0.55 0.05 -1.15 -0.20 -1.30 -0.25 -0.15 -0.45 -0.10 -0.40 0.15 0.25 1.45 -0.15 2.15 -1.25 2.15 -0.65 0 -1.45 0.35 -1.80 0.75 -0.50 0.60 -0.25 0.70 1.65 0.65 1.45 0 2.40 -0.30 2.55 -0.70z m-16.80 -2.75 c0.15 -1.60 -0.10 -1.75 -1.15 -0.80 -1.70 1.50 -2.15 1.75 -2.45 1.50 -0.15 -0.20 -0.30 -0.05 -0.30 0.25 0 0.30 0.25 0.70 0.50 0.85 0.30 0.15 0.50 0.05 0.50 -0.20 0 -0.30 0.25 -0.55 0.55 -0.55 0.30 0 0.45 0.35 0.30 0.75 -0.25 0.55 -0.10 0.60 0.80 0.20 0.75 -0.35 1.20 -1 1.25 -2z m-25.15 0.75 c0 -1.25 -0.75 -1.75 -1.50 -1.05 -0.45 0.40 -0.50 0.90 -0.15 1.50 0.60 1.15 1.65 0.85 1.65 -0.45z m68.90 0.30 c1.20 -0.60 1.50 -0.60 1.90 0.05 0.35 0.55 0.45 0.45 0.45 -0.40 0 -0.70 -0.30 -1.15 -0.80 -1.15 -0.40 0 -0.60 -0.25 -0.45 -0.50 0.50 -0.80 -0.25 -2.50 -1.15 -2.50 -0.65 0 -0.65 -0.10 0.20 -0.75 0.90 -0.65 0.80 -0.70 -1.15 -0.75 -1.55 0 -2.15 0.20 -2.15 0.70 0 0.40 0.30 0.80 0.60 0.90 0.35 0.15 -0.30 0.40 -1.50 0.55 -1.15 0.20 -2.10 0.55 -2.15 0.75 0 0.20 -0.10 0.85 -0.15 1.50 -0.10 0.60 0.15 1.35 0.55 1.65 0.35 0.30 0.65 0.40 0.65 0.25 0 -0.20 0.40 -0.15 0.85 0.15 1.10 0.60 2.45 0.45 4.30 -0.45z m-63.15 -2.75 c0.30 -0.15 0.50 -0.90 0.50 -1.65 0 -1.20 0.20 -1.35 1.70 -1.35 1.25 -0.05 1.60 0.15 1.40 0.70 -0.20 0.50 -0.05 0.65 0.55 0.40 0.40 -0.15 0.85 -0.10 0.95 0.20 0.50 1.45 3.75 0.20 3.60 -1.40 -0.05 -0.35 -0.10 -0.85 -0.15 -1.15 0 -0.25 -0.30 -0.50 -0.60 -0.50 -0.25 0 -0.40 0.20 -0.20 0.45 0.15 0.25 0.05 0.60 -0.20 0.80 -0.30 0.15 -1 -0.40 -1.65 -1.25 -0.60 -0.85 -1.40 -1.40 -1.80 -1.25 -0.35 0.10 -0.55 0.05 -0.40 -0.20 0.40 -0.65 -1.80 -1.10 -3.25 -0.65 -0.65 0.20 -1.25 0.75 -1.25 1.25 -0.15 2.10 -0.25 2.35 -0.80 2.25 -0.90 -0.25 -1.45 3.15 -0.60 3.95 0.40 0.40 0.70 1.20 0.75 1.80 0.05 0.80 0.15 0.70 0.50 -0.50 0.25 -0.90 0.70 -1.75 0.95 -1.90z m32.45 -0.05 c0.15 -0.80 0.05 -0.85 -0.65 -0.25 -0.95 0.80 -1.05 1.70 -0.15 1.45 0.30 -0.15 0.70 -0.65 0.80 -1.20z m15.55 -0.50 c0.70 -1.75 0.60 -2.70 -0.15 -2.70 -1.40 0 -3.25 -1.30 -3.75 -2.65 -0.30 -0.80 -0.75 -1.30 -1.05 -1.15 -0.90 0.60 -2.80 -0.25 -3.35 -1.45 -0.50 -1.05 -0.45 -1.20 0.55 -1.45 0.65 -0.15 1.25 -0.65 1.45 -1.05 0.35 -0.90 -0.75 -1 -1.60 -0.15 -0.50 0.50 -0.75 0.50 -1.05 -0.05 -0.35 -0.55 -0.65 -0.55 -1.60 -0.05 -0.65 0.35 -1.35 0.90 -1.55 1.15 -0.20 0.30 -0.60 0.20 -1.15 -0.30 -0.95 -0.95 -1.55 -1.05 -2 -0.35 -0.15 0.30 0.05 0.35 0.45 0.20 0.45 -0.15 0.80 -0.05 0.80 0.20 0 0.30 -0.40 0.65 -0.85 0.75 -0.50 0.15 0.05 0.25 1.25 0.30 1.20 0 2.05 0.25 1.85 0.50 -0.15 0.25 -0.05 0.60 0.25 0.80 0.25 0.15 0.50 0.60 0.50 1 0 0.55 -0.35 0.60 -1.95 0.30 -0.10 -0.05 0.10 -0.35 0.40 -0.70 0.70 -0.85 0.20 -1.35 -1.25 -1.35 -1.15 0 -1.80 1.10 -1.95 3.40 -0.05 0.75 0.15 1.05 0.55 0.90 0.80 -0.30 1.35 1.15 0.70 1.95 -0.40 0.45 -0.30 0.70 0.25 0.95 0.45 0.15 0.65 0.10 0.50 -0.20 -0.15 -0.30 -0.05 -0.50 0.20 -0.50 0.30 0 0.55 0.30 0.55 0.65 0 1 4 0.75 4.55 -0.30 0.30 -0.45 0.35 -0.85 0.20 -0.85 -0.15 0 -0.05 -0.40 0.20 -0.90 0.35 -0.70 0.90 -0.85 2.30 -0.70 1.50 0.20 1.75 0.40 1.65 1.30 -0.10 0.80 0.10 1.05 0.95 1 0.80 0 1.15 0.35 1.35 1.40 0.35 1.75 1.15 1.80 1.80 0.10z m-18.30 -1.80 c0.45 -1.80 0.40 -1.85 -1.40 -1.70 -1.25 0.05 -1.65 -0.05 -1.45 -0.55 0.15 -0.35 0.45 -0.50 0.70 -0.35 0.25 0.15 0.45 0.05 0.45 -0.20 0 -0.25 0.45 -0.60 1 -0.75 0.90 -0.25 0.95 -0.35 0.20 -1.75 -0.40 -0.85 -1.05 -1.65 -1.50 -1.80 -0.55 -0.20 -0.65 -0.65 -0.45 -1.35 0.25 -0.75 0.20 -0.95 -0.20 -0.75 -0.30 0.20 -0.55 0.05 -0.55 -0.30 0 -0.45 -0.15 -0.45 -0.50 0.10 -0.25 0.40 -0.50 0.55 -0.50 0.25 -0.05 -0.25 -0.25 0 -0.55 0.65 -0.25 0.65 -0.65 1 -0.95 0.85 -0.25 -0.15 -0.50 0.15 -0.50 0.70 0 0.60 0.25 1.05 0.55 1.05 0.30 0 0.45 0.45 0.30 1 -0.15 0.55 -0.05 1 0.20 1 0.20 0 0.30 0.35 0.15 0.75 -0.35 0.85 2.80 4.25 3.95 4.25 0.40 0 0.85 -0.50 1.05 -1.10z m-37.90 -1.70 c0.05 -1.05 0.10 -2.15 0.20 -2.45 0.05 -0.25 0.10 -0.65 0.05 -0.85 0 -0.25 0.15 -0.40 0.40 -0.40 0.65 0 0.20 -3.10 -0.45 -3.50 -0.30 -0.20 -0.40 -0.70 -0.20 -1.15 0.15 -0.45 0.55 -0.70 0.85 -0.50 0.30 0.15 0.35 0.05 0.15 -0.30 -0.20 -0.30 -0.60 -0.40 -0.90 -0.25 -0.30 0.20 -0.70 0 -0.95 -0.35 -0.60 -1 -0.55 -1.45 0.20 -1.25 0.30 0.05 0.45 0.05 0.25 -0.05 -0.60 -0.35 -0.45 -1.15 0.15 -1 0.30 0.05 0.70 -0.25 0.80 -0.65 0.20 -0.65 0.15 -0.65 -0.30 0 -0.30 0.40 -0.55 0.55 -0.55 0.30 0 -0.25 -0.30 -0.15 -0.65 0.15 -0.40 0.30 -0.85 0.40 -1 0.20 -0.60 -0.55 -0.40 -1.15 0.40 -1.15 0.45 0 0.60 -0.30 0.40 -0.80 -0.20 -0.60 -0.70 -0.70 -1.70 -0.50 -0.80 0.15 -1.45 0.10 -1.45 -0.10 0 -0.20 -1.05 -0.40 -2.40 -0.40 -1.30 -0.05 -1.95 0.05 -1.45 0.15 0.45 0.10 0.85 0.45 0.85 0.75 0 0.25 -0.40 0.35 -0.85 0.20 -0.75 -0.25 -0.75 -0.20 0.05 0.45 0.90 0.70 0.95 0.75 0.10 0.75 -0.60 0 -0.80 0.25 -0.60 0.75 0.15 0.40 0 0.75 -0.35 0.75 -0.45 0 -0.40 0.15 0.05 0.45 0.55 0.35 0.50 0.45 -0.15 0.75 -1.10 0.40 -0.40 1.45 0.80 1.15 0.60 -0.15 0.95 0 0.95 0.45 0 0.40 0.45 0.70 1 0.70 0.55 0 1 -0.20 1 -0.50 0 -0.25 -0.20 -0.50 -0.50 -0.50 -0.25 0 -0.50 -0.50 -0.50 -1.05 0 -0.85 0.25 -1 1.05 -0.80 0.60 0.15 1.10 0 1.30 -0.45 0.20 -0.50 0.50 -0.55 1.20 -0.15 0.50 0.25 0.95 0.70 0.95 1 0 0.30 -0.20 0.40 -0.45 0.25 -0.25 -0.15 -0.60 0.10 -0.80 0.60 -0.55 1.35 -0.70 4.15 -0.20 3.85 0.25 -0.15 0.60 0.60 0.75 1.75 0.20 1.30 0.60 2 1.10 2 0.60 0 0.65 0.40 0.40 2.05 -0.25 1.55 -0.15 2 0.30 1.85 0.35 -0.15 0.65 -1.10 0.70 -2.20z m22.50 1.45 c1.45 -1.95 0.30 -4.35 -1.45 -3 -1.15 0.90 -1.30 2 -0.45 3 0.40 0.45 0.85 0.85 1 0.85 0.15 0 0.55 -0.40 0.90 -0.85z m44.70 -2.60 c0 -0.85 -0.20 -1.60 -0.45 -1.75 -0.35 -0.25 -0.40 -1.10 -0.10 -3 0 -0.20 0.35 -0.30 0.75 -0.15 0.50 0.20 0.70 0 0.65 -0.65 -0.05 -0.50 -0.20 -0.85 -0.35 -0.75 -0.65 0.40 -2.25 -1.10 -2.30 -2.10 0 -0.60 0.20 -0.95 0.45 -0.80 0.25 0.15 0.30 -0.20 0.10 -0.90 -0.20 -0.65 -0.60 -1.30 -0.80 -1.35 -0.25 -0.10 -0.35 -0.35 -0.25 -0.55 0.15 -0.20 -0.05 -0.40 -0.45 -0.40 -0.40 0 -0.75 0.15 -0.75 0.30 0 0.15 -0.85 0.35 -1.90 0.40 -1.45 0.05 -1.65 0 -0.95 -0.40 0.45 -0.30 1.10 -0.35 1.40 -0.15 0.35 0.20 0.50 -0.05 0.35 -0.60 -0.10 -0.55 -0.80 -1.15 -1.80 -1.45 -1.70 -0.50 -2.20 -1.75 -0.70 -1.80 0.70 0 0.70 -0.10 -0.15 -0.40 -0.60 -0.25 -1.50 -0.15 -2.30 0.25 -0.75 0.35 -1.80 0.55 -2.40 0.45 -0.60 -0.10 -0.95 0 -0.80 0.25 0.15 0.25 0.05 0.55 -0.20 0.70 -0.25 0.20 -0.60 -0.10 -0.75 -0.60 -0.15 -0.50 -1.10 -1.25 -2.10 -1.70 -1.55 -0.70 -1.95 -0.75 -2.50 -0.15 -0.80 0.80 -0.95 3.75 -0.15 3.75 0.25 0 0.40 0.20 0.25 0.45 -0.15 0.25 0.05 0.60 0.50 0.75 1.20 0.45 2.30 0.35 1.95 -0.20 -0.20 -0.30 0.30 -0.50 1.10 -0.50 0.75 0 1.75 -0.25 2.15 -0.50 0.55 -0.35 0.55 -0.50 0.10 -0.50 -0.35 0 -0.50 -0.20 -0.35 -0.50 0.60 -1 1.75 -0.50 1.75 0.75 0 1 -0.25 1.25 -1.25 1.25 -1.10 0 -1.20 0.15 -0.75 0.95 0.25 0.55 0.50 1.50 0.55 2.15 0.05 1.05 0.05 1.05 0.35 0.15 0.40 -1.20 4.10 -1.80 4.10 -0.65 0 0.50 0.10 0.50 0.40 0.05 0.25 -0.40 0.70 0 1.35 1.25 1.35 2.50 2.75 3.65 3.85 3.05 1.20 -0.65 1.40 -0.55 1.40 0.70 0 0.80 -0.15 0.90 -0.45 0.40 -0.65 -1.05 -1.20 0.25 -0.55 1.40 0.75 1.50 0.65 1.60 -0.90 0.70 -1.45 -0.85 -5 -0.55 -3.65 0.30 0.45 0.30 0.35 0.50 -0.40 0.70 -1.25 0.30 -1.40 1.30 -0.15 1.15 0.45 -0.10 1 0.10 1.20 0.35 0.20 0.35 0.55 0.35 1 -0.05 0.55 -0.45 0.85 -0.35 1.40 0.40 0.40 0.60 1.30 1 2.10 1 1.20 0 1.40 -0.20 1.40 -1.45z m9 0 c0.90 -1.75 0.60 -2.10 -1.60 -1.95 -1.65 0.10 -2.20 0.40 -2.30 1.10 -0.35 1.80 2.95 2.55 3.90 0.85z m-56.15 -2.70 c0.30 -0.65 0.40 -1.40 0.25 -1.70 -0.95 -1.40 -4.70 -2.20 -5.35 -1.15 -0.15 0.30 -0.10 0.50 0.20 0.50 0.30 0 0.90 0.80 1.35 1.75 1 2.10 2.75 2.40 3.55 0.60z m37.50 0.85 c0.70 -0.20 1.15 -0.75 1.25 -1.65 0.15 -1.10 0.45 -1.35 2.15 -1.55 2 -0.25 2 -0.30 -0.90 -0.65 -2.35 -0.30 -3.20 -0.20 -4.40 0.50 -1.70 1 -1.70 1.05 -0.65 2.55 0.80 1.20 0.90 1.25 2.55 0.80z m-26.50 -2.80 c-0.10 -0.65 -0.20 -0.25 -0.20 0.85 -0.05 1.10 0.05 1.60 0.20 1.15 0.10 -0.50 0.10 -1.40 0 -2z m-5.85 -0.50 c0 -1.05 -0.30 -1.55 -1 -1.75 -1.20 -0.30 -1.25 -0.50 -0.25 -1.50 0.40 -0.40 0.65 -0.90 0.50 -1.10 -0.30 -0.55 -3 -0.35 -3 0.25 0 0.25 -0.20 0.75 -0.45 1.15 -0.35 0.55 -0.25 0.65 0.35 0.40 0.45 -0.15 0.95 -0.05 1.15 0.25 0.20 0.30 0.15 0.40 -0.15 0.25 -0.30 -0.20 -0.70 0 -0.85 0.45 -0.20 0.60 -0.10 0.75 0.45 0.50 0.40 -0.15 0.75 -0.05 0.75 0.20 0 0.25 0.20 1 0.50 1.70 0.65 1.75 2 1.20 2 -0.80z m52 0.10 c0 -0.25 -0.20 -0.50 -0.50 -0.50 -0.85 0 -0.55 -1.40 0.40 -1.65 0.45 -0.15 0.20 -0.20 -0.65 -0.10 -0.80 0.10 -1.55 0.20 -1.60 0.25 -0.45 0.35 -1.45 0.20 -1.80 -0.25 -0.20 -0.25 -0.30 0.25 -0.25 1.15 0.10 1.55 0.20 1.60 2.25 1.60 1.20 0 2.15 -0.20 2.15 -0.50z m-66.65 -2.65 c0.50 -1.05 0.80 -1.15 2.75 -0.90 1.60 0.25 2.35 0.10 2.95 -0.50 0.45 -0.45 2.45 -1.10 4.40 -1.45 l3.50 -0.65 0.35 -2.20 c0.25 -1.85 0.15 -2.35 -0.70 -3.20 -0.95 -0.85 -2.25 -1.45 -1.45 -0.60 0.20 0.15 0 0.70 -0.45 1.20 -0.45 0.50 -0.70 1.25 -0.55 1.70 0.20 0.40 0.10 0.75 -0.15 0.75 -0.65 0 -0.65 -1.30 0 -2.55 0.30 -0.55 0.35 -0.95 0.10 -0.95 -0.55 0 -1.25 1.90 -1.15 2.90 0.05 0.30 -0.20 0.60 -0.55 0.60 -0.45 0 -0.45 0.15 0.10 0.50 0.60 0.40 0.55 0.50 -0.35 0.50 -0.70 0 -1.15 -0.30 -1.15 -0.75 0 -0.45 -0.60 -1 -1.30 -1.25 -0.70 -0.30 -1.40 -0.95 -1.55 -1.45 -0.30 -1.20 -1.45 -0.85 -1.80 0.55 -0.15 0.55 -0.50 0.85 -0.80 0.65 -0.30 -0.15 -0.70 0.05 -0.85 0.45 -0.20 0.55 -1 0.80 -2.65 0.80 -2.75 0 -1.90 0.95 0.95 1.05 1.70 0.05 1.70 0.05 -0.45 0.50 -1.20 0.25 -2.30 0.55 -2.45 0.70 -0.15 0.15 -0.05 1.05 0.25 2 0.40 1.30 0.40 1.75 0 1.75 -0.90 0 0.80 1 1.70 1 0.45 0 1.05 -0.50 1.30 -1.15z m31.90 0.65 c-0.15 -0.25 -0.75 -0.50 -1.25 -0.50 -0.50 0 -1.10 0.25 -1.25 0.50 -0.20 0.30 0.35 0.50 1.25 0.50 0.90 0 1.45 -0.20 1.25 -0.50z m37.25 -0.25 c0 -0.40 -0.20 -0.75 -0.50 -0.75 -0.25 0 -0.50 0.35 -0.50 0.75 0 0.40 0.25 0.75 0.50 0.75 0.30 0 0.50 -0.35 0.50 -0.75z m-25.85 -1.10 c0.15 0.30 0.30 0.15 0.30 -0.45 0.05 -1.40 -0.45 -1.80 -1.35 -1.05 -0.65 0.50 -0.75 0.45 -0.50 -0.40 0.20 -0.80 0 -1 -1 -1.10 -0.80 -0.05 -1.05 0.10 -0.60 0.35 0.40 0.25 0.50 0.75 0.25 1.30 -0.85 1.95 -0.70 2.15 1 1.40 1.30 -0.55 1.75 -0.55 1.90 -0.05z m22.55 -3.35 c-0.05 -0.75 0.20 -1.30 0.60 -1.30 0.40 0 0.55 0.30 0.35 0.80 -0.25 0.65 -0.10 0.75 0.80 0.45 0.75 -0.20 1.15 -0.10 1.35 0.50 0.30 0.70 0.50 0.65 1.55 -0.45 0.65 -0.75 1.10 -1.50 0.90 -1.75 -0.15 -0.25 0.05 -0.60 0.35 -0.70 0.35 -0.15 0.15 -0.30 -0.45 -0.30 -0.65 -0.05 -1.10 0.20 -1 0.60 0.05 0.30 -0.20 0.55 -0.50 0.50 -0.35 -0.10 -0.65 0.05 -0.65 0.30 0 0.25 -0.45 0.35 -1.05 0.20 -0.60 -0.15 -0.90 -0.55 -0.75 -0.95 0.15 -0.40 0.05 -0.70 -0.20 -0.70 -0.30 0 -0.50 0.20 -0.50 0.40 0 0.55 -1.55 0.45 -2.45 -0.10 -0.60 -0.40 -0.55 -0.55 0.10 -1 0.60 -0.50 0.30 -0.60 -1.45 -0.60 -1.50 -0.05 -2.20 0.15 -2.20 0.60 0 0.40 0.55 0.60 1.35 0.55 1.10 -0.10 1.55 0.25 2.50 2.05 0.95 1.80 1 2.10 0.30 2 -0.45 -0.10 -0.85 0.25 -0.95 0.75 -0.10 0.85 0 0.85 0.95 0.20 0.70 -0.45 1.10 -1.20 1.05 -2.05z m-2.20 -0.45 c0 -2.15 -1.70 -1.60 -1.90 0.60 -0.10 1.05 0 1.55 0.35 1.30 0.30 -0.15 0.55 0 0.55 0.35 0 0.45 0.15 0.45 0.50 -0.10 0.25 -0.40 0.50 -1.40 0.50 -2.15z m-85.70 1.05 c-0.50 0.85 0.10 0.75 1 -0.15 0.45 -0.40 0.60 -1 0.40 -1.30 -0.15 -0.30 0 -0.75 0.35 -1 0.45 -0.30 0.20 -0.35 -0.80 -0.15 -1.95 0.40 -2.95 1.40 -2.55 2.45 0.25 0.75 0.45 0.75 1.15 0.20 0.60 -0.50 0.70 -0.50 0.45 -0.05z m43.70 -1.90 c0 -0.25 -0.45 -0.50 -1 -0.50 -0.55 0 -1 0.25 -1 0.50 0 0.30 0.45 0.50 1 0.50 0.55 0 1 -0.20 1 -0.50z m6.10 -0.40 c0.35 -1.25 -0.50 -3.25 -1.20 -2.95 -0.35 0.10 -1.15 0 -1.75 -0.20 -1.10 -0.40 -1.15 -0.30 -1.15 1.80 l0 2.25 1.95 0 c1.45 0 2 -0.25 2.15 -0.90z m-5.80 -2.40 c0.80 -0.80 1.20 -1.85 1.20 -3.05 0 -1.55 -0.15 -1.75 -1.05 -1.50 -0.70 0.20 -0.95 0.10 -0.80 -0.35 0.50 -1.20 -0.40 -1.95 -1.60 -1.35 -1.50 0.80 -1.45 3.65 0.10 4.75 0.60 0.45 0.80 0.70 0.50 0.55 -0.70 -0.30 -0.95 1.30 -0.30 1.90 0.50 0.55 0.70 0.45 1.95 -0.95z m12.70 0.80 c0 -0.30 -0.55 -0.50 -1.25 -0.50 -0.70 0 -1.25 -0.20 -1.25 -0.45 0 -0.25 -0.35 -0.80 -0.75 -1.20 -0.60 -0.65 -0.50 -0.85 0.90 -1.55 0.90 -0.40 1.30 -0.80 1 -0.80 -0.35 0 -0.65 -0.40 -0.65 -0.95 0 -0.50 -0.35 -1.20 -0.80 -1.60 -0.65 -0.50 -0.85 -0.50 -1.25 0.10 -0.25 0.40 -0.35 1 -0.20 1.35 0.15 0.35 0.05 0.50 -0.20 0.35 -0.80 -0.45 -1.15 0.75 -0.80 2.60 0.20 1.25 0.45 1.60 0.75 1.20 0.50 -0.85 1.50 -0.25 1.50 0.85 0 0.60 0.45 0.90 1.50 0.95 0.85 0.05 1.50 -0.10 1.50 -0.35z m-15.50 -0.75 c0 -0.40 -0.20 -0.75 -0.45 -0.75 -0.65 0 -1.10 0.80 -0.70 1.20 0.55 0.55 1.15 0.30 1.15 -0.45z m-22.35 -0.75 c-0.50 -0.55 -0.95 -1 -1.10 -1 -0.10 0 -0.05 0.15 0.10 0.35 0.20 0.15 0.10 0.60 -0.20 1 -0.45 0.50 -0.30 0.65 0.75 0.65 1.25 0 1.25 -0.05 0.45 -1z m66.05 -1 c0.30 0 0.60 -0.40 0.65 -0.90 0.05 -0.75 -0.20 -0.90 -1.15 -0.70 -1.25 0.20 -2.20 1.10 -1.25 1.10 0.30 0 0.55 0.40 0.60 0.90 0 0.50 0.15 0.60 0.30 0.25 0.10 -0.35 0.50 -0.65 0.85 -0.65z m-75 -0.10 c-0.30 -0.50 -0.25 -0.50 0.35 -0.05 0.55 0.45 0.90 0.40 1.65 -0.15 0.60 -0.40 0.70 -0.70 0.35 -0.70 -0.35 0 -0.55 -0.30 -0.40 -0.70 0.45 -1.15 -1.05 -2.10 -2.15 -1.40 -0.70 0.45 -1 0.40 -1.15 -0.05 -0.15 -0.35 -0.30 -0.10 -0.30 0.50 -0.05 0.60 -0.40 1.30 -0.85 1.55 -1.20 0.65 -0.40 1.60 1.35 1.60 1.10 0 1.40 -0.20 1.15 -0.60z m26.45 -1.55 c-0.40 -0.65 -1.15 0.15 -1.15 1.30 0 1 0 1 0.70 0.10 0.40 -0.55 0.60 -1.15 0.45 -1.40z m42.90 1.65 c0.25 0 0.45 -0.45 0.45 -1 0 -1.25 -0.90 -1.30 -1.80 -0.10 -0.90 1.15 -0.85 1.75 0.10 1.40 0.45 -0.15 1 -0.30 1.25 -0.30z m-60.40 -1.90 c-0.15 -0.60 -0.45 -1.10 -0.70 -1.10 -0.70 0 -0.55 1.90 0.20 2.15 0.80 0.30 0.85 0.25 0.50 -1.05z m-2.15 0.40 c0 -0.25 -0.45 -0.50 -1 -0.50 -0.55 0 -1 0.25 -1 0.50 0 0.30 0.45 0.50 1 0.50 0.55 0 1 -0.20 1 -0.50z m59.80 -0.05 c0.20 -0.40 0.45 -0.35 0.80 0.10 0.35 0.55 0.45 0.55 0.35 -0.05 -0.15 -1.70 0.05 -2.05 1.05 -1.75 0.55 0.20 1 0.10 1 -0.20 0 -0.30 0.45 -0.55 1 -0.55 0.55 0 1 -0.25 1 -0.55 0 -0.25 -0.20 -0.35 -0.50 -0.20 -0.25 0.15 -0.50 -0.05 -0.50 -0.45 0 -0.45 -0.30 -0.65 -0.75 -0.50 -0.40 0.15 -0.65 0.45 -0.60 0.60 0.10 0.40 -0.10 0.50 -2.10 1.10 -1.20 0.35 -1.50 0.25 -1.70 -0.50 -0.15 -0.65 0 -0.80 0.85 -0.65 0.85 0.20 0.90 0.15 0.30 -0.30 -0.60 -0.45 -0.50 -0.55 0.65 -0.55 0.95 0 1.50 -0.35 1.80 -1.10 0.35 -0.95 0.25 -1.25 -0.85 -1.70 -0.90 -0.40 -1.75 -0.45 -2.70 -0.10 -1.85 0.65 -2.90 0.20 -2.65 -1.10 0.15 -0.85 0.05 -0.95 -0.80 -0.45 -0.70 0.35 -1.20 0.35 -1.65 0 -0.35 -0.30 -1.35 -0.40 -2.20 -0.25 -2 0.40 -4.10 -0.10 -4.10 -1.05 0 -0.35 -0.25 -0.85 -0.55 -1.05 -0.40 -0.20 -0.45 0 -0.20 0.75 0.25 0.75 0.10 1.05 -0.45 1.05 -0.45 0 -0.80 -0.20 -0.80 -0.50 0 -0.25 -0.55 -0.50 -1.25 -0.50 -0.70 0 -1.25 0.25 -1.25 0.55 0 0.25 -0.20 0.35 -0.50 0.20 -1 -0.60 -0.50 1 0.75 2.45 0.70 0.80 1.25 1.25 1.25 1 0 -0.25 0.55 0.20 1.25 0.95 1.05 1.10 1.50 1.25 2.25 0.85 0.80 -0.40 1 -0.35 1 0.20 0 0.50 0.30 0.65 0.75 0.50 0.40 -0.20 0.75 -0.05 0.75 0.35 0 0.35 0.15 0.45 0.30 0.30 0.20 -0.20 0.05 -0.65 -0.30 -1.10 -0.40 -0.45 -0.45 -0.75 -0.10 -0.75 0.30 0 0.75 0.40 1.05 0.85 0.40 0.75 0.70 0.80 2.15 0.25 2.25 -0.80 2.40 -0.75 2.40 0.30 0.05 1.10 1.25 2.70 1.70 2.25 0.20 -0.20 0.45 0.15 0.65 0.75 0.30 1.20 0.90 1.40 1.45 0.55z m-46.05 -0.45 c-0.40 -0.65 -1.75 -0.65 -2.75 0 -0.55 0.35 -0.25 0.50 1.15 0.50 1.15 0 1.80 -0.20 1.60 -0.50z m38.10 -0.10 c-1.05 -0.35 -1.60 -0.35 -2 0.05 -0.40 0.40 0 0.55 1.45 0.50 1.95 -0.05 1.95 -0.05 0.55 -0.55z m-45.65 -1.95 c-0.15 -0.30 -2 -0.30 -4.15 0 -0.10 0.05 0.10 0.40 0.45 0.80 0.45 0.55 0.80 0.65 1.20 0.25 0.80 -0.80 1.45 -0.60 1.10 0.35 -0.30 0.75 -0.25 0.75 0.65 -0.05 0.55 -0.50 0.90 -1.10 0.75 -1.35z m12.65 0.05 c0.50 0 0.70 -0.30 0.50 -1 -0.15 -0.55 -0.05 -0.90 0.20 -0.70 0.25 0.15 0.45 0.85 0.45 1.55 0 0.75 0.15 1.20 0.30 1 0.20 -0.15 0.15 -1.10 0 -2.05 -0.25 -1.40 -0.65 -1.85 -1.65 -2.10 -0.70 -0.20 -1.70 -0.10 -2.20 0.25 -1.20 0.70 -1.60 0.70 -1.15 -0.05 0.25 -0.50 0.20 -0.50 -0.30 -0.05 -0.50 0.45 -0.85 0.50 -1.35 0.10 -0.75 -0.65 -2.35 -0.20 -1.90 0.55 0.15 0.25 0.05 0.50 -0.20 0.50 -1.10 0 -0.50 1.05 0.80 1.55 0.95 0.35 1.45 0.35 1.55 0 0.10 -0.35 0.50 -0.25 0.95 0.20 0.40 0.40 0.95 0.65 1.15 0.50 0.25 -0.15 0.75 0.25 1.10 0.85 l0.65 1.15 0.15 -1.10 c0.10 -0.65 0.50 -1.15 0.95 -1.15z m14.55 0.20 c0 -1.40 -1.20 -2.20 -3.10 -2.20 -1.35 0 -1.50 0.45 -1 2.35 0.25 0.90 0.65 1.10 2.20 1.05 1.65 0 1.90 -0.15 1.90 -1.20z m11.30 0.15 c-0.40 -1.10 -1.50 -1.40 -2.20 -0.65 -0.40 0.50 -0.35 0.75 0.20 0.95 0.55 0.20 0.65 0.05 0.50 -0.55 -0.15 -0.55 0.05 -0.45 0.60 0.30 0.90 1.25 1.40 1.20 0.90 -0.05z m22.80 0.55 c0 0.50 0.15 0.50 0.70 0 0.40 -0.35 0.60 -0.80 0.45 -1 -0.10 -0.25 0.20 -0.40 0.70 -0.40 0.75 0 0.80 -0.10 0.15 -0.50 -1.05 -0.70 -1.50 -0.60 -1.50 0.25 0 0.40 -0.25 0.70 -0.60 0.65 -0.30 -0.10 -0.65 0.30 -0.75 0.85 -0.15 0.80 -0.10 0.85 0.30 0.25 0.40 -0.55 0.55 -0.55 0.55 -0.10z m-67.30 -0.20 c0.50 -0.20 0.80 -0.90 0.80 -1.75 0 -1.30 -0.20 -1.45 -1.55 -1.45 -0.85 0 -1.95 0.25 -2.50 0.50 -0.95 0.50 -1.30 2 -0.60 2.65 0.40 0.45 2.80 0.45 3.85 0.05z m7.10 -3.25 c0.25 0.05 0.45 -0.25 0.45 -0.55 0 -0.35 0.75 -0.90 1.65 -1.20 1.55 -0.50 2.55 -1.40 2.60 -2.30 0 -0.75 -3.25 -0.35 -5.25 0.60 -1.10 0.55 -2.15 0.95 -2.35 1 -0.20 0 -0.90 0.20 -1.65 0.50 -1.10 0.40 -1.20 0.65 -0.75 1.45 0.55 1.05 3.95 1.70 4.55 0.90 0.15 -0.25 0.50 -0.40 0.75 -0.40z m8.70 -4.85 c0 -0.60 0.15 -0.65 0.60 -0.20 0.35 0.35 1 0.60 1.45 0.60 0.50 0 0.95 0.30 1.10 0.65 0.10 0.35 0.40 0.40 0.65 0.15 0.25 -0.25 0.20 -0.55 -0.15 -0.65 -1.10 -0.40 -0.70 -1.50 0.60 -1.75 0.65 -0.15 1.10 -0.05 0.95 0.15 -0.15 0.25 0.20 0.45 0.75 0.45 0.60 0 1.05 -0.20 1.05 -0.50 0 -0.25 -0.25 -0.50 -0.60 -0.50 -0.30 0 -0.40 -0.15 -0.25 -0.35 0.45 -0.45 2.85 -0.55 2.85 -0.10 0 0.55 3.50 0.90 4.65 0.50 0.70 -0.25 1.10 -0.85 1.10 -1.60 0 -0.85 0.30 -1.20 0.90 -1.15 0.45 0.05 0.85 -0.10 0.85 -0.35 0 -0.25 -0.35 -0.45 -0.75 -0.45 -1 0 -0.95 -0.85 0.05 -1.40 0.55 -0.30 0.65 -0.55 0.25 -0.80 -0.30 -0.20 -0.55 -0.10 -0.55 0.20 0 0.35 -0.30 0.40 -0.95 0 -1.60 -0.85 -3.10 -0.60 -3.40 0.55 -0.15 0.55 -0.55 0.90 -0.95 0.75 -0.40 -0.15 -0.55 0 -0.35 0.55 0.25 0.60 0.05 0.70 -0.75 0.45 -0.55 -0.20 -1.15 -0.15 -1.30 0.15 -0.15 0.25 -0.75 0.35 -1.30 0.20 -0.55 -0.15 -1.35 0 -1.75 0.35 -0.45 0.35 -0.75 0.40 -0.75 0.10 0 -0.35 -0.60 -0.30 -1.80 0.05 -1.30 0.40 -1.95 0.95 -2.30 1.95 -0.30 0.75 -0.70 1.25 -0.95 1.10 -0.50 -0.30 -0.60 0.35 -0.15 1.50 0.35 0.95 1.20 0.55 1.20 -0.60z m33.25 -1.40 c1.10 -0.45 0 -1.20 -1.70 -1.20 -1 0 -1.05 0.10 -0.55 0.75 0.70 0.85 1.05 0.90 2.25 0.45z m-21.25 -8.20 c0 -0.55 -0.35 -1 -0.75 -1 -0.85 0 -0.90 0.10 -0.45 1.20 0.45 1.15 1.20 1 1.20 -0.20z"/>
  <path d="M121.05 111.05 c-0.80 -1.50 -0.60 -2 0.20 -0.55 0.40 0.70 0.75 1.15 0.75 1 0.05 -0.15 0.15 -0.65 0.25 -1.15 0.25 -1.35 0.75 -1.70 0.75 -0.50 0 0.55 -0.30 1.30 -0.70 1.60 -0.60 0.50 -0.85 0.40 -1.25 -0.40z"/>
  <path d="M112.15 107.65 c-0.50 -0.15 -0.45 -0.40 0.10 -1 0.50 -0.45 1.10 -0.60 1.65 -0.35 0.80 0.35 0.80 0.35 -0.05 0.55 -0.45 0.15 -0.75 0.45 -0.60 0.70 0.35 0.50 -0.10 0.55 -1.10 0.10z"/>
  <path d="M72.65 99.60 c-0.35 -0.20 -0.55 -0.90 -0.50 -1.50 0.05 -0.95 0.15 -1 0.75 -0.40 0.85 0.85 0.60 2.45 -0.25 1.90z"/>
  <path d="M89 98.50 c0 -0.25 0.60 -0.50 1.40 -0.50 1.05 0 1.20 0.10 0.60 0.50 -1 0.65 -2 0.65 -2 0z"/>
  <path d="M92.50 95.50 c0 -0.25 0.35 -0.50 0.75 -0.50 0.40 0 0.75 0.25 0.75 0.50 0 0.30 -0.35 0.50 -0.75 0.50 -0.40 0 -0.75 -0.20 -0.75 -0.50z"/>
  <path d="M139.25 85.15 c-0.55 -0.15 -1.20 -0.50 -1.50 -0.75 -0.60 -0.65 1.75 0 2.50 0.65 0.25 0.25 0.35 0.40 0.25 0.40 -0.15 -0.05 -0.70 -0.15 -1.25 -0.30z"/>
  <path d="M117.60 76.65 c0.10 -0.60 0.70 -0.95 1.80 -1.05 1.40 -0.15 1.65 0 1.50 0.75 -0.10 0.60 -0.70 0.95 -1.80 1.05 -1.40 0.15 -1.65 0 -1.50 -0.75z"/>
 </g>
 <g fill="#fcc1af">
  <path d="M96.30 135.45 c-2 -2.35 -1.55 -2.70 0.70 -0.65 2.20 2.05 2.30 2.20 1.30 2.20 -0.40 0 -1.30 -0.70 -2 -1.55z"/>
  <path d="M90.45 123.75 c-1.60 -0.85 -2.70 -3.30 -2.25 -5 1.15 -4.65 7.25 -4.75 9.25 -0.15 0.90 2.05 0.90 2.20 0 3.95 -0.80 1.65 -1.05 1.75 -3.30 1.85 -1.30 0.05 -3 -0.25 -3.70 -0.65z"/>
  <path d="M137 123.65 c-3.40 -0.50 -3.55 -0.60 -2.95 -1.70 0.30 -0.60 0.45 -1.70 0.30 -2.45 -0.45 -2.15 0.65 -3.15 3.90 -3.50 2.80 -0.30 2.85 -0.30 4.30 1.45 0.85 1.05 1.25 1.95 1 2.20 -0.25 0.25 -0.35 0.80 -0.20 1.20 0.15 0.40 -0.25 1.25 -0.85 1.95 -1.15 1.20 -2.30 1.35 -5.50 0.85z"/>
  <path d="M103.80 122.40 c0.25 -0.65 0.40 -1.65 0.45 -2.25 0 -0.65 0.30 -1.15 0.65 -1.15 0.70 0 0.60 1.95 -0.10 3.65 -0.60 1.25 -1.45 1.05 -1 -0.25z"/>
  <path d="M127.80 122.10 c-0.15 -0.25 -0.50 -1.05 -0.75 -1.80 -0.40 -1 -0.35 -1.30 0.15 -1.30 0.40 0 0.80 0.70 0.95 1.65 0.25 1.70 0.15 2.20 -0.35 1.45z"/>
  <path d="M111.50 90.45 c0 -0.55 0.25 -0.85 0.50 -0.70 0.30 0.15 0.50 0.65 0.50 1.05 0 0.40 -0.20 0.70 -0.50 0.70 -0.25 0 -0.50 -0.45 -0.50 -1.05z"/>
 </g>
 <g fill="#3c3c58">
  <path d="M93.50 159.75 c0 -0.55 -0.60 -0.75 -2.25 -0.75 -2.95 0 -4.25 -1.25 -4.25 -4.05 l0 -2.05 3 0.20 c2.15 0.15 3.20 0.45 3.65 1.15 0.60 0.75 0.75 0.80 1 0.15 0.15 -0.50 -0.20 -1 -0.95 -1.40 -0.65 -0.40 -1.20 -0.85 -1.20 -1.10 0 -0.20 -1.45 -0.40 -3.25 -0.40 l-3.25 0 0.05 -1.60 c0 -0.90 0.65 -3.20 1.40 -5.15 1.65 -4.30 2.85 -4.80 4.30 -1.90 0.55 1.05 1 2.15 1 2.40 0 0.50 3.45 3.75 6.80 6.50 1.20 1 3.25 1.90 6.35 2.80 2.25 0.70 2 1.65 -0.75 2.95 -1.85 0.85 -3 1.05 -5.25 0.90 -2.75 -0.20 -2.90 -0.15 -2.90 0.95 0 1 -0.25 1.15 -1.75 1.15 -1.20 0 -1.75 -0.25 -1.75 -0.75z"/>
  <path d="M131.75 160.15 c-0.55 -0.10 -2.20 -0.45 -3.60 -0.70 -2.10 -0.40 -2.65 -0.70 -2.65 -1.50 0 -0.75 -0.35 -0.95 -1.80 -0.95 -1.55 0 -1.75 -0.15 -1.60 -1.05 0.10 -0.80 0.75 -1.25 2.30 -1.70 1.15 -0.35 2.70 -1 3.35 -1.45 1.20 -0.80 1.25 -0.80 1.25 0.40 0 1.30 0.30 1.45 5.15 2.10 l2.35 0.30 0 2.15 c0 2.65 -1.10 3.20 -4.75 2.40z"/>
  <path d="M139.50 152.95 l0 -1.60 -4.75 0.35 c-3.10 0.20 -4.75 0.15 -4.75 -0.20 0 -0.25 0.15 -0.50 0.40 -0.50 0.60 0 3.75 -3.05 5.55 -5.35 1.35 -1.80 1.95 -2.15 3.35 -2.15 1.40 0 1.75 0.20 2 1.35 0.20 0.75 0.65 1.65 0.95 2 0.40 0.35 0.65 2.10 0.65 4.15 l0.05 3.50 -1.75 0 c-1.60 0 -1.70 -0.10 -1.70 -1.55z"/>
  <path d="M106.60 150.95 c-4 -2 -8.10 -5.65 -8.10 -7.25 0 -1.50 1.20 -1.60 2.20 -0.15 1.15 1.65 6.20 5.25 8.35 5.95 1.55 0.50 1.95 0.90 1.95 1.85 0 1.50 -0.75 1.45 -4.40 -0.40z"/>
  <path d="M118.50 150.80 c0 -0.40 0.95 -1.05 2.10 -1.55 1.15 -0.45 2.70 -1.25 3.50 -1.80 0.75 -0.55 1.40 -0.80 1.40 -0.50 0 0.30 0.45 0.55 1 0.55 1.70 0 1.10 0.85 -1.70 2.45 -2.85 1.65 -6.30 2.10 -6.30 0.85z"/>
  <path d="M115.50 143.50 c0 -1.45 0.10 -1.50 2.25 -1.50 2.05 0 2.25 0.10 2.25 1.20 0 1.20 -1.05 1.80 -3.35 1.80 -0.95 0 -1.15 -0.30 -1.15 -1.50z"/>
  <path d="M97 138.50 c0 -0.55 0.25 -1 0.55 -1 0.40 0 0.40 -0.25 -0.05 -0.75 -0.45 -0.55 -0.45 -0.75 -0.05 -0.75 1.10 0 3.05 1.60 3.05 2.55 0 0.75 -0.35 0.95 -1.75 0.95 -1.40 0 -1.75 -0.20 -1.75 -1z"/>
  <path d="M84.85 132.95 c-2.50 -2.85 -8.70 -13.70 -9.20 -16 -0.15 -0.90 -0.60 -1.45 -1.10 -1.45 -1.35 0 -2 -1 -1.70 -2.55 0.20 -1.05 0.05 -1.50 -0.55 -1.75 -1 -0.40 -1.05 -2.15 -0.05 -2.50 0.45 -0.20 0.75 -0.95 0.75 -2.05 0 -2.75 1.10 -1.75 2 1.90 0.45 1.75 1.20 3.95 1.70 4.85 0.45 0.85 0.75 1.60 0.60 1.60 -0.45 0 5.90 11.35 7.95 14.30 1.20 1.65 2.95 3.55 3.95 4.25 1 0.65 1.80 1.35 1.80 1.60 0 0.20 -0.90 0.35 -1.95 0.35 -1.75 0 -2.25 -0.30 -4.20 -2.55z"/>
  <path d="M115.35 127.65 c-0.20 -0.15 -0.35 -0.75 -0.35 -1.25 0 -0.50 -0.20 -0.90 -0.50 -0.90 -0.25 0 -0.50 0.45 -0.50 1 0 1.40 -1.30 1.25 -3.35 -0.30 -2.80 -2.15 -2.25 -2.70 2.60 -2.65 4.20 0.05 4.85 -0.15 10.40 -2.95 0.80 -0.40 -0.80 2.70 -2.05 4.05 -1.90 2.05 -5.50 3.75 -6.25 3z"/>
  <path d="M148.75 124.40 c0.65 -1.95 1.75 -3.90 2.30 -3.90 0.30 0 0.45 1 0.35 2.40 -0.15 2.15 -0.25 2.35 -1.55 2.50 -1.30 0.15 -1.40 0.05 -1.10 -1z"/>
  <path d="M112.80 114.20 c-2 -2 -1.65 -2.90 0.50 -1.45 2.30 1.55 2.45 1.55 4.55 -0.05 1.95 -1.50 2.15 -0.90 0.35 1.25 -1.65 1.95 -3.55 2.05 -5.40 0.25z"/>
  <path d="M161.80 112.30 c-0.35 -1.45 -1.55 -2 -2.80 -1.30 -0.50 0.30 -1.40 0.50 -1.95 0.50 -0.90 0 -1.05 -0.30 -1 -2.10 0.05 -1.20 0.20 -1.65 0.30 -1.05 0.20 1 0.30 1 1.55 0.35 0.75 -0.40 1.70 -0.70 2.15 -0.70 0.80 0 2.65 -1.80 4.10 -4 1.35 -1.95 1.15 -6.05 -0.40 -7.70 -0.65 -0.70 -1.55 -1.30 -2 -1.30 -1.40 0 -0.80 -1.50 0.75 -1.80 1.05 -0.25 1.50 -0.60 1.50 -1.25 0 -0.60 0.35 -0.95 1 -0.95 0.95 0 1 0.20 0.70 2.50 -0.25 2.05 -0.20 2.50 0.45 2.50 0.90 0 1.35 1.45 1.35 4.60 0 2.90 -0.60 4.50 -2.55 7 -1.45 1.80 -1.50 2.05 -0.90 3.45 0.50 1.30 0.50 1.60 -0.10 2 -1.15 0.75 -1.85 0.50 -2.15 -0.75z"/>
  <path d="M67.20 112.20 c-0.35 -0.15 -0.50 -0.70 -0.35 -1.20 0.20 -0.65 -0.25 -1.40 -1.30 -2.30 -2.95 -2.45 -4.50 -7.20 -2.55 -7.60 0.50 -0.10 1 0.50 1.45 1.70 0.90 2.50 4.30 5.85 5.60 5.45 1.45 -0.50 1.25 1.60 -0.35 3.05 -1.25 1.20 -1.50 1.30 -2.50 0.90z"/>
  <path d="M93.75 109.15 c-0.45 -0.45 -1.05 -1.35 -1.30 -2 -0.20 -0.60 -0.75 -1.15 -1.20 -1.15 -0.40 0 -0.75 -0.20 -0.75 -0.50 0 -0.25 -0.35 -0.50 -0.75 -0.50 -1.20 0 -0.90 -0.85 0.75 -2 0.85 -0.60 1.50 -0.85 1.50 -0.55 0 0.30 0.50 0.55 1.15 0.55 1.10 0 1.80 0.85 2.55 3.15 0.20 0.70 0.65 0.80 2.30 0.55 2.35 -0.40 2.60 0.25 0.75 2.05 -1.40 1.45 -3.80 1.65 -5 0.40z"/>
  <path d="M131.60 108.65 c-0.75 -0.75 -1.65 -1.30 -2.05 -1.25 -0.45 0.10 -0.60 -0.10 -0.35 -0.65 0.15 -0.45 0.30 -1.05 0.30 -1.30 0 -0.25 0.60 -0.45 1.30 -0.45 0.85 0 1.40 0.30 1.55 1 0.35 1.25 2.30 1.40 2.05 0.15 -0.10 -0.50 -0.60 -0.85 -1.05 -0.85 -0.70 0.10 -0.85 -0.25 -0.75 -1.50 0.15 -1.30 0.40 -1.60 1.90 -2 1.25 -0.30 2.25 -0.20 3.65 0.35 1.55 0.70 1.85 1.05 1.85 2.30 0 0.95 -0.25 1.55 -0.65 1.55 -0.70 0 -2.35 1.75 -2.35 2.50 0 0.65 -1.70 1.50 -3 1.50 -0.55 0 -1.65 -0.60 -2.40 -1.35z"/>
  <path d="M155.20 105.40 c0.15 -0.65 0.30 -1.45 0.30 -1.75 0 -0.35 0.45 -0.65 1 -0.65 1.05 0 1.35 0.75 0.50 1.25 -0.25 0.15 -0.50 0.75 -0.50 1.30 0 0.55 -0.35 0.95 -0.80 0.95 -0.60 0 -0.75 -0.30 -0.50 -1.10z"/>
  <path d="M62 97.25 c0.25 -0.70 0.95 -1.90 1.55 -2.70 0.90 -1.25 1 -1.70 0.55 -3 -0.30 -0.85 -0.35 -1.55 -0.10 -1.55 0.20 0 0.75 -0.15 1.20 -0.30 0.60 -0.20 0.80 0 0.80 0.75 0 1.05 0.05 1.05 1.25 0.25 l1.25 -0.80 0 1.80 c0 1.45 0.20 1.80 1 1.80 0.65 0 1 0.35 1 1 0 0.85 -0.35 1 -2.20 1 -1.85 0 -2.40 0.25 -3.45 1.50 -0.70 0.85 -1.75 1.50 -2.30 1.50 -0.90 0 -0.95 -0.15 -0.55 -1.25z"/>
  <path d="M130.70 91.30 c-0.90 -2.35 1.45 -4.10 4.45 -3.25 1.50 0.40 1.85 0.75 1.85 1.70 0 1 -0.25 1.25 -1.25 1.25 -0.70 0 -1.25 0.25 -1.25 0.50 0 0.80 -3.50 0.60 -3.80 -0.20z"/>
  <path d="M72 89.05 c0 -1.15 0.40 -1.70 1.70 -2.50 1.90 -1.20 3.80 -1.40 3.80 -0.35 0 0.35 -1.25 1.50 -2.75 2.50 l-2.75 1.80 0 -1.45z"/>
  <path d="M93.50 89.30 c0 -0.75 0.35 -1.35 0.95 -1.55 1.40 -0.45 2.55 0.25 2.55 1.55 0 1.05 -0.25 1.20 -1.75 1.20 -1.50 0 -1.75 -0.15 -1.75 -1.20z"/>
  <path d="M152.85 87.20 c-1.05 -0.70 -3.15 -1.85 -4.65 -2.50 -3.05 -1.35 -3.40 -2 -1.15 -2.30 1.75 -0.25 5.10 1.15 8.45 3.60 1.95 1.50 2.10 1.70 1.25 2.05 -1.55 0.60 -1.90 0.55 -3.90 -0.85z"/>
  <path d="M78.50 85 c0 -1.35 5.70 -4 7.65 -3.65 1.35 0.25 1.95 1.65 0.75 1.65 -0.35 0 -2.10 0.70 -3.80 1.50 -3.75 1.75 -4.60 1.85 -4.60 0.50z"/>
  <path d="M89.50 80.35 c0 -1.55 5.05 -4.15 6.50 -3.35 1.60 0.85 1.20 1.35 -2.25 2.95 -3.90 1.85 -4.25 1.90 -4.25 0.40z"/>
  <path d="M132.70 78.55 c-5.70 -2.35 -8.80 -4.15 -11.55 -6.70 -2.15 -2 -2.80 -3.85 -1.35 -3.85 0.45 0 1.90 0.95 3.25 2.15 2.45 2.15 6.05 4.20 11.60 6.55 2.40 1.05 2.85 1.45 2.85 2.50 0 0.75 -0.05 1.30 -0.10 1.30 -0.10 0 -2.20 -0.90 -4.70 -1.95z"/>
  <path d="M99.15 76.15 c-1.20 -0.45 -0.65 -1.60 2 -4.10 2.05 -2 2.95 -2.55 4.30 -2.55 1.65 0 1.65 0.05 0.85 0.95 -0.85 0.90 -0.80 0.95 0.65 1.30 2.55 0.55 1.90 1.60 -1.20 1.85 -1.80 0.15 -3.15 0.60 -3.90 1.25 -1.45 1.30 -1.95 1.55 -2.70 1.30z"/>
  <path d="M106.90 65.65 c-0.20 -1.50 2 -8.80 2.70 -9.05 0.20 -0.10 0.40 -1.05 0.40 -2.15 0 -1.90 0.05 -1.95 1.90 -1.95 l1.85 0 0.60 2.95 c0.30 1.60 1.20 4.35 2.05 6.10 1.20 2.50 1.40 3.30 0.95 4.05 -0.35 0.50 -0.75 0.90 -0.95 0.90 -0.50 0 -3.90 -7 -3.90 -8.05 0 -2.20 -0.95 -1.15 -2 2.20 -1.30 4.15 -2.35 6.35 -3 6.35 -0.25 0 -0.50 -0.60 -0.60 -1.35z"/>
  <path d="M164.50 64.40 c0 -0.10 -0.35 -1.20 -0.75 -2.50 -0.70 -2.40 -0.70 -2.40 0.50 -2.40 0.85 0 1.30 0.40 1.70 1.55 0.85 2.40 0.70 3.45 -0.45 3.45 -0.55 0 -1 -0.05 -1 -0.10z"/>
  <path d="M65.50 60.20 c0 -0.15 0.90 -2.20 1.95 -4.50 1.90 -4 2.05 -4.20 3.60 -4.20 1.30 0 1.50 0.15 1.05 0.60 -0.85 0.85 -0.75 1.45 0.25 1.30 1.55 -0.25 1.20 1.30 -0.75 3.40 -1.10 1.15 -2.10 2.45 -2.25 2.90 -0.20 0.55 -0.90 0.80 -2.10 0.80 -0.95 0 -1.75 -0.15 -1.75 -0.30z"/>
  <path d="M160.20 53.40 c-0.75 -1.45 -2.05 -3.55 -2.95 -4.70 -1.75 -2.10 -1.70 -3.45 0.05 -3.10 1.05 0.20 4.80 5.30 4.40 5.95 -0.15 0.25 -0.05 0.45 0.20 0.45 0.35 0 2.10 3.10 2.10 3.75 0 0.15 -0.55 0.25 -1.25 0.25 -1 0 -1.50 -0.50 -2.55 -2.60z"/>
  <path d="M150.15 41.05 c-1.55 -1.30 -2.15 -2.20 -2.15 -3.20 0 -1.15 0.15 -1.30 0.90 -0.90 2.35 1.35 3.65 3 3.50 4.45 l-0.15 1.50 -2.10 -1.85z"/>
  <path d="M80.90 40.60 c-1.45 -0.30 -1.05 -1.45 1.05 -3.10 1.55 -1.25 2 -2.05 2.30 -3.80 0.30 -2.05 0.40 -2.20 1.85 -2.20 1.30 0 1.50 0.15 1.25 1 -0.20 0.80 -0.05 1 0.80 0.95 3.70 -0.30 4.35 0.55 1.50 2 -1.05 0.50 -3.25 1.95 -4.90 3.15 -1.65 1.20 -3.40 2.10 -3.85 2z"/>
  <path d="M101.65 29.70 c-0.35 -0.15 -0.65 -0.60 -0.65 -0.95 0 -0.70 2.70 -1.40 7.65 -2 2.80 -0.35 2.85 -0.35 2.85 0.90 0 0.95 -0.30 1.30 -1.50 1.50 -2.45 0.50 -7.70 0.85 -8.35 0.55z"/>
  <path d="M117.50 27.50 c0 -0.95 0.25 -1.05 2.85 -0.90 2.30 0.10 2.95 0.35 3.05 1.05 0.15 0.75 -0.25 0.85 -2.85 0.85 -2.75 0 -3.05 -0.10 -3.05 -1z"/>
  <path d="M86 27 c0 -0.25 0.25 -1.05 0.60 -1.75 0.85 -1.85 1.90 -1.60 1.90 0.50 0 1.55 -0.15 1.75 -1.25 1.75 -0.70 0 -1.25 -0.20 -1.25 -0.50z"/>
  <path d="M123.90 23.70 c-1.35 -0.70 -2 -2.70 -0.90 -2.70 0.30 0 0.50 -0.35 0.50 -0.75 0 -0.50 0.50 -0.75 1.50 -0.75 1.20 0 1.80 0.45 3 2.10 0.80 1.10 1.50 2.25 1.50 2.50 0 0.70 -4.15 0.40 -5.60 -0.40z"/>
  <path d="M88.05 22.40 c2.30 -4.35 11.25 -9.95 16.85 -10.65 l2.70 -0.35 -0.20 1.40 c-0.15 1.30 -0.40 1.50 -2.45 1.75 -1.30 0.20 -2.80 0.60 -3.40 0.90 -0.60 0.35 -1.80 0.45 -2.80 0.25 -1.60 -0.30 -1.75 -0.20 -1.75 0.85 0 1.30 -3.70 4.30 -4.85 4.05 -0.40 -0.10 -0.65 0.35 -0.65 1.05 0 1.30 -0.80 1.85 -2.80 1.85 -1.15 0 -1.20 -0.10 -0.65 -1.10z"/>
  <path d="M109.15 14.15 c-0.80 -0.15 -1.15 -0.55 -1.15 -1.45 0 -1.05 0.25 -1.20 1.70 -1.20 1.65 0 2.30 0.65 2.30 2.30 0 0.70 -0.65 0.75 -2.85 0.35z"/>
 </g>
 <g fill="#3b3d4e">
  <path d="M184.50 203.75 c0 -0.80 0.30 -1.25 0.75 -1.25 0.40 0 0.75 0.35 0.75 0.75 0 0.60 0.80 0.75 4.25 0.75 2.50 0 4.25 0.20 4.25 0.50 0 0.30 -2 0.50 -5 0.50 l-5 0 0 -1.25z"/>
  <path d="M193.50 187 c-0.45 -0.85 -1.05 -1 -4 -1 -2.80 0 -3.50 0.15 -3.50 0.75 0 0.40 -0.35 0.75 -0.75 0.75 -0.55 0 -0.75 -0.55 -0.75 -2 0 -1.45 0.20 -2 0.75 -2 0.40 0 0.75 0.35 0.75 0.80 0 0.75 0.55 0.80 4.50 0.60 l4.50 -0.25 0 1.65 c0 1.90 -0.70 2.20 -1.50 0.70z"/>
  <path d="M91 160 c-2.20 -0.55 -4.30 -2.85 -5 -5.50 -0.70 -2.60 -0.10 -6 1.95 -11 0.85 -2.05 1.55 -3.80 1.55 -3.85 0 -0.10 0.20 -0.15 0.40 -0.15 0.20 0 0.65 0.70 0.95 1.50 0.55 1.40 0.50 1.50 -0.65 1.50 -0.85 0 -1.20 0.30 -1.20 0.95 0 0.75 0.30 0.90 1.70 0.75 1.45 -0.20 1.80 0 2.90 1.70 l1.25 1.85 -1.15 0.90 c-1.20 0.90 -1.95 1.10 -1.50 0.45 0.15 -0.25 -0.30 -1 -1 -1.75 -1.20 -1.30 -1.30 -1.30 -2.45 -0.55 -1.35 0.90 -1.65 1.95 -0.60 2.35 0.35 0.15 0.40 0.30 0.05 0.30 -0.75 0.05 -0.10 3.70 0.85 4.90 0.45 0.55 0.50 0.70 0.10 0.45 -1 -0.55 -0.75 0.60 0.25 1.60 1.05 1.05 5.05 1.15 6.20 0.25 0.80 -0.65 3.30 -0.70 3.70 -0.10 0.15 0.25 0.80 0.45 1.50 0.45 0.85 0 1.15 -0.20 0.90 -0.60 -0.20 -0.35 -0.15 -0.40 0.25 -0.20 0.30 0.20 1.40 -0.05 2.45 -0.55 1.60 -0.85 2.15 -0.90 4.10 -0.40 l2.25 0.55 -2.05 1.10 c-4.80 2.45 -13.90 4.05 -17.70 3.10z"/>
  <path d="M129.50 159.75 c-3.55 -0.75 -9.90 -2.95 -10.65 -3.70 -0.25 -0.25 0.50 -0.65 1.95 -0.95 1.55 -0.35 2.55 -0.35 2.75 -0.05 0.15 0.30 0.70 0.30 1.50 0 1.05 -0.45 1.10 -0.50 0.20 -0.55 -0.75 -0.05 -0.65 -0.20 0.50 -0.60 0.85 -0.30 1.80 -0.75 2.15 -1.05 0.45 -0.35 0.60 -0.10 0.60 1.10 0 0.95 -0.30 1.70 -0.75 1.85 -0.40 0.20 -0.75 0.60 -0.75 0.95 0 0.80 1.20 1.35 3.50 1.55 0.95 0.10 2.05 0.30 2.40 0.45 0.90 0.30 2.10 -0.25 2.10 -1 0 -0.45 -1 -0.80 -2.75 -1 -2.70 -0.35 -2.75 -0.40 -2.75 -2.05 l0 -1.70 3 0 3 0 0 1.50 0 1.50 2.15 -1.05 c2.45 -1.25 2.85 -1.75 2.85 -3.60 0 -0.80 0.20 -1.85 0.50 -2.35 0.40 -0.70 0.25 -0.95 -0.55 -1.15 -0.60 -0.15 -0.90 -0.50 -0.70 -0.80 0.15 -0.30 0.10 -0.95 -0.20 -1.40 -0.40 -0.75 -0.65 -0.65 -2.05 0.80 -0.85 0.95 -1.45 2 -1.30 2.35 0.15 0.40 0 0.55 -0.45 0.40 -1.25 -0.50 -1.25 -1.75 0 -3.40 0.65 -0.90 1.70 -2.70 2.30 -4 1.25 -2.85 1.70 -2.60 3.35 1.70 3.15 8.15 2.65 13.65 -1.35 15.75 -2.15 1.10 -6.75 1.35 -10.55 0.50z"/>
  <path d="M97.80 153.95 c-1.10 -0.90 -0.80 -2.45 0.45 -2.45 1.10 0 5.90 2.50 5.55 2.90 -0.70 0.65 -5 0.35 -6 -0.45z"/>
  <path d="M91 152.75 c0 -1.70 0.05 -1.75 1.95 -1.75 1.10 0 2.15 0.25 2.30 0.50 0.15 0.30 0.05 0.50 -0.20 0.50 -0.30 0 -0.55 0.55 -0.55 1.25 0 1.10 -0.20 1.25 -1.75 1.25 -1.65 0 -1.75 -0.10 -1.75 -1.75z"/>
  <path d="M110.65 152.70 c-0.75 -0.20 -1.15 -0.65 -1.15 -1.30 0 -0.90 -0.10 -0.95 -0.85 -0.35 -0.70 0.60 -0.80 0.60 -0.55 -0.05 0.20 -0.70 3.20 -0.95 12.90 -0.95 5.25 0 0.20 2.50 -5.50 2.75 -2.05 0.05 -4.25 0 -4.85 -0.10z"/>
  <path d="M95.55 150.95 c-0.35 -0.60 -0.40 -0.90 -0.10 -0.70 0.75 0.45 0.70 -0.40 -0.05 -1.15 -1.10 -1.10 0.20 -0.60 1.70 0.65 1.30 1.10 1.30 1.35 0.10 1.20 -0.20 0 -0.50 0.20 -0.65 0.50 -0.20 0.30 -0.60 0.10 -1 -0.50z"/>
  <path d="M131.35 150.55 c1.55 -1.45 2.85 -1.55 3.05 -0.15 0.15 1 -0.05 1.10 -1.95 1.10 -2.15 0 -2.15 0 -1.10 -0.95z"/>
  <path d="M103.75 149.35 c-2.55 -1.85 -8.05 -7.30 -8.75 -8.65 -0.40 -0.70 -1.90 -1.80 -3.45 -2.55 -4.95 -2.35 -7.80 -5.85 -5.85 -7.25 0.75 -0.55 1.80 1.25 1.20 1.95 -0.50 0.60 0.05 0.90 1.25 0.70 0.20 -0.05 1.80 0.70 3.50 1.65 1.70 0.95 3.85 1.85 4.80 2.05 l1.70 0.35 -1.45 -1.90 -1.45 -1.90 2.75 2.05 c5.80 4.30 11.25 6.15 18.05 6.15 6.65 -0.05 12.30 -2.45 17.90 -7.70 1.70 -1.60 2.05 -1.80 1.55 -0.80 -0.35 0.70 -1.20 1.90 -1.85 2.70 -0.65 0.80 -1.10 1.50 -1 1.60 0.35 0.40 4.85 -1.20 6.95 -2.45 3.25 -1.90 6.15 -5.15 8.30 -9.35 1.95 -3.75 6.20 -15.55 6.85 -19.10 0.20 -1.05 0.50 -1.90 0.70 -1.90 0.20 0 0.30 -0.65 0.15 -1.45 -0.10 -0.80 0.05 -1.60 0.35 -1.75 0.30 -0.20 0.55 0 0.55 0.45 0 0.60 0.35 0.70 1.40 0.50 l1.35 -0.30 -1.35 1.15 c-1.15 1 -1.40 1.60 -1.40 3.60 0 1.85 0.15 2.30 0.65 1.95 0.30 -0.30 1.25 -0.65 2 -0.85 1.10 -0.25 1.40 -0.20 1.20 0.30 -0.10 0.35 0 1.05 0.25 1.50 0.30 0.65 0.25 0.80 -0.25 0.65 -1.20 -0.50 -2.55 1 -2.15 2.40 0.25 1.10 0.60 1.35 1.80 1.35 1.30 0 1.55 -0.25 1.85 -1.50 0.20 -1.15 0.55 -1.50 1.45 -1.50 1.45 0 1.60 1.30 0.45 3.50 -1.35 2.65 -5.45 2.85 -7.35 0.35 -0.45 -0.60 -0.90 -1 -1.05 -0.85 -0.10 0.15 -0.90 2.30 -1.85 4.75 -1.95 5.30 -4.65 10.85 -6.40 13.15 -1.80 2.40 -6.75 5.90 -9.60 6.85 -1.40 0.45 -2.95 1.40 -3.50 2.15 -1.80 2.30 -7.15 7.60 -7.65 7.60 -0.30 0 -0.95 0.35 -1.45 0.85 -0.70 0.65 -0.90 0.65 -0.95 0.10 -0.15 -1.60 0.30 -2.30 3.45 -5.25 3.20 -3 3.30 -3.15 1.95 -3.20 -0.75 0 -2.45 0.55 -3.75 1.20 -2.95 1.50 -7.65 2.45 -7.25 1.50 0.10 -0.30 -0.05 -0.75 -0.35 -0.95 -0.35 -0.20 -0.70 0.10 -0.85 0.70 -0.20 0.80 -0.65 1.05 -1.85 1.05 -2.50 0 -8 -1.35 -10.15 -2.40 -1.05 -0.55 -3.05 -1.15 -4.40 -1.35 l-2.50 -0.35 1.45 1.55 c0.85 0.85 1.20 1.55 0.90 1.55 -0.35 0 -0.60 0.50 -0.55 1.15 0 0.60 0.15 0.80 0.30 0.50 0.35 -1 0.95 -0.80 3.80 1.10 1.60 1.10 2.25 1.75 1.65 1.75 -0.65 0 -0.85 0.25 -0.65 1 0.15 0.55 0.20 1 0.20 1 -0.05 0 -0.75 -0.55 -1.60 -1.15z"/>
  <path d="M82.60 130.05 c-1.65 -2.35 -1.95 -4 -0.80 -4.40 0.30 -0.10 0.40 0.50 0.30 1.65 -0.15 1.15 -0.05 1.70 0.30 1.50 0.25 -0.15 1.15 0.05 1.90 0.45 0.80 0.40 1.20 0.75 0.85 0.75 -0.30 0 -0.65 0.55 -0.75 1.25 -0.15 1.15 -0.25 1.10 -1.80 -1.20z"/>
  <path d="M113.15 127.50 c-0.65 -0.25 -1.15 -0.80 -1.15 -1.20 0 -0.85 -1.50 -1.50 -1.50 -0.65 -0.05 0.70 -3 -2.40 -3 -3.15 0 -0.25 1.25 0 2.80 0.50 1.60 0.60 3.70 0.90 5 0.80 1.25 -0.10 2.10 -0.05 2 0.10 -0.35 0.30 1 1.60 1.65 1.60 0.30 0 0.55 0.25 0.55 0.50 0 0.35 -0.30 0.35 -0.95 0 -1.55 -0.80 -2.30 -0.65 -1.50 0.30 1.15 1.40 -1.40 2.20 -3.90 1.20z"/>
  <path d="M101.80 125.25 c0.85 -1.10 1.90 -2.65 2.35 -3.50 0.70 -1.25 0.80 -1.35 0.85 -0.45 0 1.35 -1.85 4.10 -3.50 5.15 -1.15 0.75 -1.15 0.65 0.30 -1.20z"/>
  <path d="M130.40 126 c-1.25 -0.95 -3.10 -4.20 -2.80 -4.90 0.10 -0.20 1.10 1.05 2.25 2.75 1.20 1.75 2.05 3.15 1.95 3.15 -0.10 0 -0.75 -0.45 -1.40 -1z"/>
  <path d="M120.90 124.10 c-1.45 -0.30 -1.05 -1.40 0.90 -2.55 2.25 -1.35 2.30 -1.35 1.55 0.35 -0.80 1.85 -1.45 2.40 -2.45 2.20z"/>
  <path d="M75.95 118.15 c-1 -2.40 -1.15 -2.45 -3.30 -1.40 -3.15 1.60 -6.60 -1.35 -5.95 -5.05 0.30 -1.50 0.45 -1.60 1.55 -1.20 1.05 0.40 1.20 0.30 1.35 -0.90 0.15 -1.20 0.35 -1.35 1.80 -1.30 1.50 0.10 1.60 0 1.60 -1.60 0 -1.35 -0.25 -1.85 -1.25 -2.30 -0.70 -0.30 -1.25 -0.75 -1.25 -1.05 0 -0.25 0.55 -0.30 1.25 -0.15 1.10 0.30 1.25 0.15 1.30 -1.05 l0.05 -1.40 0.45 1.50 c0.80 2.75 0.95 5.65 0.30 5.90 -0.35 0.15 -0.25 0.30 0.20 0.30 0.80 0.05 1.45 1 1.45 2.15 0 0.30 -0.60 0.40 -1.35 0.20 -0.80 -0.15 -1.10 -0.15 -0.75 0 0.30 0.15 0.60 0.70 0.60 1.20 0 1.10 0.90 1.80 2.05 1.60 1.10 -0.20 2.25 2.85 1.35 3.55 -0.50 0.30 -0.45 0.40 0.15 0.20 0.55 -0.20 1.05 0.25 1.55 1.30 l0.75 1.60 -1.50 0 c-1.30 0 -1.60 -0.30 -2.40 -2.10z m-3.25 -4.45 c0.80 -2.10 -0.80 -3.70 -2.70 -2.70 -0.95 0.50 -1.35 2.45 -0.65 3.15 0.65 0.65 3.05 0.35 3.35 -0.45z"/>
  <path d="M116.30 114.55 c-0.15 -0.25 0.05 -0.70 0.45 -1.05 0.40 -0.35 0.75 -0.45 0.75 -0.25 0 0.20 0.45 -0.15 1 -0.80 1.30 -1.60 1.30 -0.45 -0.05 1.25 -1.05 1.35 -1.70 1.60 -2.15 0.85z"/>
  <path d="M112.30 113.70 c-0.55 -1.40 -0.35 -1.75 0.65 -1.10 0.50 0.30 0.85 0.90 0.70 1.25 -0.35 0.90 -1 0.80 -1.35 -0.15z"/>
  <path d="M94.50 109.65 c-0.90 -0.40 -1.85 -1.60 -2.20 -2.80 -0.20 -0.75 0 -0.90 0.85 -0.65 1 0.25 1 0.20 0.25 -0.40 -0.50 -0.35 -0.85 -0.75 -0.75 -0.85 0.05 -0.10 -0.10 0 -0.40 0.30 -0.65 0.70 -4.75 2.25 -4.75 1.85 0 -0.70 1.80 -3.05 3 -4 2.75 -2.15 6.65 -1.80 9.15 0.80 1.35 1.45 2.60 4.95 1.30 3.70 -0.55 -0.50 -0.85 -0.35 -1.80 0.75 -0.65 0.80 -1 1 -0.85 0.55 0.30 -0.95 -0.15 -1.10 -1.50 -0.60 -0.75 0.30 -0.75 0.40 0.05 1 0.85 0.60 0.80 0.65 -0.35 0.65 -0.70 0 -1.60 -0.15 -2 -0.30z m3.40 -3.50 c0.25 -0.90 -1.40 -1.45 -1.90 -0.60 -0.25 0.35 -0.30 0.85 -0.15 1.10 0.35 0.60 1.75 0.25 2.05 -0.50z"/>
  <path d="M163.20 109.20 c0.35 -1.15 -0.80 -2 -1.85 -1.40 -0.35 0.20 -0.15 -0.15 0.40 -0.70 0.70 -0.75 1.35 -1 2.15 -0.80 1.40 0.40 1.40 0.95 0.05 2.60 -0.90 1.15 -1.05 1.20 -0.75 0.30z"/>
  <path d="M65.55 108.85 c-0.60 -0.75 -0.25 -1.35 0.80 -1.35 0.35 0 0.65 0.45 0.65 1 0 1.15 -0.65 1.30 -1.45 0.35z"/>
  <path d="M134.50 108.50 c-1.25 -1.25 -2.35 -1.30 -2.65 -0.10 -0.15 0.65 -0.35 0.50 -0.80 -0.65 -0.45 -1.15 -0.70 -1.30 -1.05 -0.75 -0.85 1.40 -1.05 0.05 -0.25 -1.70 0.55 -1.15 1.55 -2.10 2.95 -2.80 2.35 -1.10 3 -1.25 2.55 -0.50 -0.15 0.30 -0.05 0.50 0.20 0.50 0.30 0 0.55 -0.20 0.55 -0.45 0 -0.55 2.20 0 3.95 0.95 1 0.50 3.05 3.25 3.05 4.05 0 0.20 -1 -0.05 -2.25 -0.50 -1.55 -0.55 -2.25 -1.10 -2.25 -1.70 0 -0.50 -0.20 -0.80 -0.45 -0.65 -0.25 0.15 -0.70 -0.05 -1.05 -0.45 -0.80 -0.95 -1.70 -0.95 -2.50 0 -0.45 0.55 -0.45 0.85 0.10 1.35 0.90 0.85 1.90 1.05 1.90 0.40 0 -0.35 0.30 -0.35 1 0 1.05 0.55 0.90 1.60 -0.40 3.15 -0.95 1.10 -1.35 1.10 -2.60 -0.15z m-0.10 -2.35 c-0.10 -0.50 -0.50 -0.90 -0.90 -0.90 -0.40 0 -0.80 0.40 -0.90 0.90 -0.10 0.60 0.15 0.85 0.90 0.85 0.75 0 1 -0.25 0.90 -0.85z"/>
  <path d="M62.30 104.20 c-0.15 -0.45 -0.40 -1.95 -0.55 -3.35 -0.30 -3.20 0.95 -6.20 2.50 -5.95 1.45 0.30 1.55 0.50 0.60 2.05 -0.45 0.80 -0.85 2.50 -0.85 3.75 0 1.35 -0.25 2.30 -0.55 2.30 -0.30 0 -0.45 0.35 -0.30 0.75 0.20 0.40 0.10 0.85 -0.10 1 -0.25 0.15 -0.60 -0.10 -0.75 -0.55z"/>
  <path d="M165.90 104.60 c-0.70 -0.15 -0.90 -0.65 -0.85 -2.25 0 -1.15 0.15 -1.85 0.25 -1.55 0.15 0.35 0.70 0.50 1.20 0.35 0.75 -0.20 1 0 0.95 0.65 -0.10 1.90 -0.70 3 -1.55 2.80z"/>
  <path d="M164.60 97.55 c-0.35 -0.70 -0.60 -1.70 -0.65 -2.25 0 -0.60 -0.15 -0.75 -0.30 -0.40 -0.10 0.30 -0.45 0.45 -0.75 0.30 -0.25 -0.20 -2.20 -0.30 -4.35 -0.25 l-3.80 0.05 2.15 -1.35 2.15 -1.30 -1.10 -1.15 c-0.60 -0.65 -1.85 -1.70 -2.75 -2.30 -0.95 -0.65 -1.70 -1.55 -1.70 -2 0 -0.45 -0.20 -1 -0.50 -1.15 -0.30 -0.15 -0.35 0.05 -0.20 0.45 0.15 0.45 0.05 0.80 -0.25 0.80 -0.65 0 -0.70 -1 -0.10 -1.95 0.55 -0.85 2.25 0.20 7.75 4.60 1.65 1.30 3.15 2.20 3.35 2 0.20 -0.25 0.75 -2.70 1.20 -5.55 0.65 -3.90 0.80 -6.90 0.60 -12.25 -0.30 -8.25 -1.05 -11.70 -4.10 -18.25 -1.20 -2.50 -1.95 -4.60 -1.65 -4.60 0.30 0 0.30 -0.30 -0.10 -0.75 -0.50 -0.60 -0.50 -0.75 0.05 -0.75 1.10 0 1.75 0.60 2.65 2.40 0.70 1.40 0.75 1.60 0.05 1.60 -0.40 0 -0.75 0.20 -0.75 0.45 0 0.25 0.40 0.40 0.90 0.35 0.90 -0.05 2.70 3.10 3.35 5.90 0.25 1.25 0.20 1.40 -0.75 1.15 -0.70 -0.15 -1 -0.05 -0.85 0.30 0.10 0.35 0.65 0.60 1.25 0.55 0.55 0 1 0.10 0.95 0.25 0 0.15 0.25 1.50 0.55 2.95 1.50 6.65 1.20 17.90 -0.70 25.50 -0.70 2.75 -0.70 3.30 -0.10 4.25 1.35 2.05 1.40 3.25 0.20 3.45 -0.80 0.15 -1.25 -0.10 -1.70 -1.05z"/>
  <path d="M73.45 95.80 c-0.10 -0.10 -1.45 -0.30 -2.95 -0.45 -2.85 -0.20 -4.90 -0.85 -4.95 -1.45 -0.05 -0.25 -0.05 -0.85 -0.05 -1.40 0 -0.55 -0.30 -1 -0.70 -1 -0.90 0 -1.05 -0.60 -1.85 -6.25 -1.30 -9.70 1.25 -26.50 4 -26.50 0.40 0 0.80 -0.30 0.95 -0.70 0.15 -0.50 0 -0.60 -0.60 -0.40 -0.45 0.20 -0.80 0.10 -0.80 -0.15 0 -0.30 0.25 -0.50 0.55 -0.50 0.25 0 0.40 -0.20 0.20 -0.45 -0.15 -0.25 0 -0.75 0.35 -1.15 0.35 -0.35 0.70 -1 0.80 -1.40 0.65 -2.90 7.40 -11.45 12.05 -15.30 3.15 -2.55 3.50 -3 3.75 -5.15 0.45 -3.10 1.85 -7.55 2.35 -7.55 0.25 0 0.40 -0.15 0.35 -0.35 -0.30 -0.85 1.25 -3.65 2.15 -3.90 0.50 -0.15 0.80 -0.60 0.65 -0.90 -0.10 -0.35 0.50 -1.30 1.35 -2.10 0.90 -0.85 1.45 -1.20 1.25 -0.85 -0.20 0.30 -0.20 0.60 0.05 0.60 0.20 0 0.70 0.20 1.05 0.45 0.55 0.30 0.20 1.10 -1.55 3.50 -2.25 3 -4.35 7.65 -4.35 9.55 0 0.60 -0.40 1 -1.10 1.10 -0.75 0.10 -1.20 0.55 -1.30 1.30 -0.15 1.10 0.20 1.30 2.10 1.10 1.30 -0.10 0.80 0.95 -0.95 1.90 -0.80 0.45 -1.75 1.20 -2.10 1.60 -0.55 0.65 -0.60 0.65 -0.35 -0.10 0.25 -0.70 0.05 -0.90 -1 -0.90 -0.70 0 -1.30 0.25 -1.30 0.50 0 0.30 0.35 0.50 0.75 0.50 1.30 0 0.85 0.65 -3.05 4.50 -3.55 3.55 -8.50 9.85 -8.05 10.35 0.10 0.10 1.15 -0.60 2.30 -1.55 3.45 -2.90 11.25 -7.30 11.85 -6.70 0.10 0.10 -1.35 1.05 -3.20 2.15 -1.85 1.05 -4.85 3.35 -6.70 5.15 -1.90 1.80 -3.40 3 -3.40 2.70 0 -0.35 -0.25 -0.60 -0.55 -0.60 -0.35 0 -0.85 -0.35 -1.20 -0.85 -0.35 -0.50 -0.85 -0.65 -1.25 -0.40 -0.50 0.30 -0.45 0.55 0.25 1.10 0.55 0.35 0.75 0.65 0.45 0.65 -0.25 0 0 0.35 0.55 0.80 0.85 0.65 0.90 0.85 0.25 1.85 -3.80 6 -5.55 12.10 -5.55 19.60 -0.05 7.90 1.20 15.60 2.15 13.35 0.25 -0.60 6.75 -4.80 9.80 -6.30 2.30 -1.15 2.75 -1.25 3.35 -0.60 0.40 0.40 0.75 0.85 0.75 1 0 0.65 -4.50 2.15 -5.80 1.95 -1.15 -0.20 -1.30 -0.10 -0.70 0.30 0.65 0.50 0.55 0.70 -0.60 1.55 -0.70 0.60 -1.80 1.45 -2.45 1.95 l-1.10 0.90 2.20 2.05 c1.20 1.15 1.95 2.10 1.65 2.10 -0.30 0 -0.65 -0.10 -0.75 -0.20z"/>
  <path d="M86 95 c0 -1.25 3.55 -4.90 6 -6.15 3.20 -1.60 5.10 -1.50 6.90 0.45 1.85 2.10 1.45 2.55 -2.65 2.85 -2.75 0.20 -4.70 0.70 -7 1.80 -1.80 0.80 -3.25 1.30 -3.25 1.05z"/>
  <path d="M141.75 94.70 c-1.65 -1.20 -7.15 -2.70 -10 -2.70 -2.35 0 -2.65 -0.10 -2.40 -0.95 0.30 -1.25 2.05 -2.85 3.65 -3.30 l1.25 -0.40 -1.25 1.05 c-1 0.85 -1.15 1.15 -0.60 1.65 0.45 0.50 0.60 0.50 0.60 0.05 0 -0.35 0.60 -0.60 1.30 -0.60 0.70 0 1.15 -0.20 0.95 -0.50 -0.20 -0.30 -0.55 -0.35 -0.85 -0.20 -0.35 0.25 -0.40 0.10 -0.15 -0.25 0.90 -1.50 5.90 1.25 7.75 4.15 1.25 2.10 1.15 3.05 -0.25 2z"/>
  <path d="M111.20 93 c0.15 -0.70 0.30 -1.65 0.30 -2.10 0 -0.50 0.25 -0.90 0.50 -0.90 0.80 0 0.60 2.20 -0.30 3.30 -0.75 0.90 -0.75 0.90 -0.50 -0.30z"/>
  <path d="M117.05 92.40 c-0.30 -0.85 -0.40 -1.75 -0.15 -2 0.20 -0.20 0.65 0.50 0.95 1.60 0.60 2.35 0 2.70 -0.80 0.40z"/>
  <path d="M142.20 82.30 c-6.60 -2.55 -6.70 -2.60 -6.70 -3.80 0 -0.50 -0.30 -1.05 -0.60 -1.15 -0.50 -0.20 -0.50 -0.30 -0.05 -0.30 0.65 -0.05 9.25 3.20 13.25 5.05 2.15 0.95 2.30 1.15 1.50 1.70 -1.15 0.90 -1.15 0.90 -7.40 -1.50z"/>
  <path d="M84.05 83 c-1.05 -0.60 0.05 -1.80 2.35 -2.55 1 -0.30 2.75 -1.05 3.85 -1.60 1.45 -0.70 1.80 -0.80 1.35 -0.25 -0.35 0.45 -0.50 1.10 -0.30 1.55 0.45 1.25 -5.85 3.75 -7.25 2.85z"/>
  <path d="M93.85 78.30 l-1.45 -0.65 1.65 -0.65 c4.65 -1.95 9.05 -6.10 11.55 -10.85 1.05 -2 1.95 -3.15 2.50 -3.15 1.25 0 1.50 0.75 0.65 2.30 -1.25 2.45 -1 3 1.90 3.80 l2.60 0.80 -3.35 0.05 c-1.85 0 -3.50 0.30 -3.65 0.55 -0.15 0.30 -0.80 0.50 -1.40 0.55 -2.25 0.05 0.75 0.90 3.65 0.95 5.95 0.25 6 0.80 0.10 1.45 -3.80 0.45 -5.85 0.50 -6.25 0.15 -0.40 -0.35 -0.90 -0.30 -1.50 0.15 -0.85 0.60 -0.85 0.65 0 0.95 0.80 0.35 0.75 0.45 -0.35 1.35 -1.20 0.95 -4.80 3 -5.10 2.90 -0.10 0 -0.80 -0.30 -1.55 -0.65z"/>
  <path d="M128.40 76.65 c-1.90 -1 -2.35 -1.50 -2.30 -2.45 0.15 -1.45 0.50 -1.50 2.30 -0.35 1.60 1.05 2.15 1.70 1.80 2.25 -0.15 0.20 0.10 0.40 0.50 0.40 0.45 0 0.80 0.35 0.80 0.75 0 0.95 -0.30 0.90 -3.10 -0.60z"/>
  <path d="M122.35 72.80 c-1.65 -1.30 -1.70 -1.80 -0.30 -1.80 0.90 0 0.95 -0.10 0.45 -0.75 -0.85 -1 -2 -0.95 -2 0.10 0 0.65 -0.35 0.50 -1.55 -0.65 -2.05 -1.95 -3.60 -4.55 -3.25 -5.45 0.50 -1.30 1.60 -0.80 3.05 1.30 0.80 1.10 2.60 3.10 4.05 4.40 2.45 2.25 2.55 2.45 1.75 3.15 -0.80 0.65 -1 0.65 -2.20 -0.30z"/>
  <path d="M133.90 69.55 c-5.65 -2.20 -10.85 -7.75 -12.85 -13.65 -1.35 -3.85 -1.95 -9.10 -1.10 -9.60 0.30 -0.20 0.55 -0.05 0.55 0.40 0 1.15 1.95 6.65 3.25 9.30 1.95 3.85 5.65 8.35 9.15 11.05 1.85 1.45 3.55 2.80 3.85 3.05 0.75 0.65 -0.25 0.45 -2.85 -0.55z"/>
  <path d="M109.55 62.45 c-0.05 -0.85 -1.35 -1.65 -1.70 -1.05 -0.10 0.20 -0.10 0 0.05 -0.40 0.35 -1.05 3.05 -11.10 4.05 -15 0.50 -1.75 1 -3 1.15 -2.70 0.20 0.25 0.50 3 0.70 6.10 0.35 5.55 0.35 5.60 -0.75 5.60 -0.60 0 -0.95 -0.20 -0.80 -0.50 0.15 -0.25 0.05 -0.50 -0.20 -0.50 -0.30 0 -0.55 0.55 -0.55 1.25 0 0.70 0.30 1.25 0.65 1.25 0.45 0 0.45 0.10 -0.05 0.45 -0.35 0.20 -1.05 1.70 -1.60 3.35 -0.50 1.60 -0.95 2.60 -0.95 2.15z"/>
  <path d="M113.65 61.85 c-0.95 -2.05 -0.85 -6.35 0.10 -6.35 0.50 0 0.85 0.70 1.05 2 0.20 1.10 0.55 2.15 0.75 2.30 0.70 0.40 0.50 1.20 -0.25 1.20 -0.40 0 -0.80 0.50 -0.90 1.10 -0.15 1.05 -0.20 1.05 -0.75 -0.25z"/>
  <path d="M155.55 46.65 c-3.10 -4.25 -9.20 -9.05 -15.30 -12.10 -7.75 -3.85 -15.25 -5.55 -24.50 -5.55 -5.75 0 -6.25 -0.15 -6.25 -2.10 0 -0.55 15.20 -0.20 17.40 0.40 1.55 0.45 1.40 -0.45 -0.40 -1.95 -2.75 -2.35 -6.70 -3.45 -12.95 -3.75 -3.90 -0.15 -5.45 -0.40 -4.85 -0.70 1 -0.55 10.90 -0.70 13.20 -0.20 2.30 0.55 2 -0.20 -1.05 -2.25 -3.05 -2.15 -5.45 -3.20 -8.30 -3.70 -1.10 -0.20 -2.25 -0.70 -2.55 -1.15 -0.25 -0.50 -0.50 -0.60 -0.50 -0.20 0 0.85 -3.50 0.80 -3.50 -0.05 0 -0.40 -0.35 -0.70 -0.75 -0.70 -0.40 0 -0.75 0.35 -0.75 0.75 0 0.60 -0.10 0.60 -0.80 0.05 -0.45 -0.40 -1.45 -0.65 -2.15 -0.55 l-1.30 0.10 1.25 -0.55 c0.65 -0.25 2.90 -0.60 5 -0.80 7.15 -0.50 14.05 2.10 19.05 7.20 2.60 2.65 2.65 2.75 1.20 2.45 -1.20 -0.25 -1.65 -0.10 -2.15 0.75 -0.90 1.40 -0.60 1.55 1.10 0.70 0.80 -0.40 1.70 -0.75 2.05 -0.75 0.35 0 1.40 1.50 2.35 3.30 l1.65 3.30 4.30 1.60 c4.20 1.60 10.20 4.70 13.20 6.95 0.80 0.60 3.40 3 5.75 5.35 3.15 3.15 4 4.30 3.35 4.40 -0.45 0.10 -0.85 0.40 -0.85 0.65 0 0.90 -0.95 0.45 -1.95 -0.90z"/>
  <path d="M88.15 35.20 c-0.35 -0.30 -0.45 -0.75 -0.30 -0.90 0.20 -0.15 0 -0.30 -0.35 -0.30 -1.10 0 6.90 -3.80 10.45 -4.95 3.80 -1.25 4.85 -1.30 6.75 -0.30 1.40 0.75 1.40 0.75 1.10 -0.55 -0.30 -1.10 -0.20 -1.25 0.45 -1 0.45 0.15 1.25 0.05 1.80 -0.20 0.60 -0.35 0.95 -0.35 0.95 -0.05 0 0.25 -0.40 0.55 -0.85 0.65 -0.75 0.15 -0.75 0.20 -0.05 0.95 0.70 0.70 0.45 0.85 -3.05 1.40 -4.45 0.75 -8.55 2.10 -13.10 4.30 -2.55 1.20 -3.40 1.45 -3.80 0.95z"/>
  <path d="M94.85 18.30 c-0.15 -0.35 0 -0.95 0.30 -1.25 0.45 -0.45 0.45 -0.70 -0.05 -1 -0.40 -0.25 0.35 -0.80 2.15 -1.65 1.50 -0.70 2.60 -1.10 2.50 -0.90 -0.15 0.25 0.20 0.55 0.75 0.75 1.50 0.45 1.20 1.15 -0.80 2 -0.95 0.40 -2.40 1.20 -3.20 1.75 -1.10 0.80 -1.45 0.85 -1.65 0.30z"/>
 </g>
 <g fill="#363b52">
  <path d="M93.50 159.50 c-0.65 -0.55 -1.65 -1 -2.25 -1 -0.70 0 -1.85 -0.80 -2.90 -1.95 -0.95 -1.10 -1.85 -1.90 -1.95 -1.80 -0.30 0.30 0 -5.20 0.40 -6.85 0.20 -0.90 0.35 -1.85 0.25 -2.15 -0.05 -0.25 0.05 -0.30 0.30 -0.10 0.20 0.25 0.65 -0.40 0.95 -1.50 0.40 -1.50 0.80 -1.90 1.75 -1.95 1.10 -0.05 1.10 -0.05 0.10 0.15 -0.70 0.15 -1.15 0.60 -1.15 1.10 0 0.75 0.30 0.90 1.55 0.75 0.90 -0.10 1.40 0 1.20 0.30 -0.15 0.30 0.05 0.50 0.45 0.50 0.45 0 0.80 0.25 0.80 0.50 0 0.30 -0.25 0.50 -0.60 0.50 -0.30 0 -0.10 0.50 0.50 1.15 0.85 0.90 0.95 1.30 0.50 1.75 -0.45 0.45 -0.25 0.85 0.85 1.80 1.50 1.30 2.35 1.35 1.35 0.15 -0.45 -0.50 -0.20 -0.60 1.25 -0.45 1.15 0.15 1.55 0.35 1.10 0.65 -0.35 0.20 -0.85 0.25 -1.05 0.15 -0.20 -0.15 -0.40 0 -0.40 0.30 0 0.35 0.35 0.45 0.80 0.30 0.45 -0.15 1.35 0.15 2.05 0.70 0.70 0.55 1.90 1 2.70 1 1.55 0 2.35 0.75 1.25 1.15 -0.40 0.15 -1.35 0.15 -2.20 0.05 -1.15 -0.20 -1.55 -0.05 -1.75 0.75 -0.30 1.25 0 1.55 1.50 1.55 0.80 0 1.10 -0.20 0.85 -0.60 -0.20 -0.35 -0.15 -0.40 0.25 -0.20 0.30 0.20 1.25 0 2.15 -0.40 1.90 -1 2.70 -1 1.95 -0.10 -0.60 0.75 -3.75 1.70 -6.55 2 -2.50 0.25 -3.50 0.75 -3.50 1.85 0 1.25 -1.05 1.20 -2.50 -0.05z m-1.40 -2.40 c1.25 -0.55 -0.10 -2.05 -2.05 -2.30 -1.80 -0.20 -1.95 0.30 -0.55 1.70 1.05 1.05 1.30 1.10 2.60 0.60z m-0.45 -7.70 c0.80 -0.60 0.75 -0.75 -0.40 -2 -1.25 -1.35 -1.35 -1.35 -2.50 -0.60 -1.40 0.90 -1.65 2.20 -0.50 2.20 0.40 0 0.75 0.25 0.75 0.50 0 0.70 1.65 0.60 2.65 -0.10z"/>
  <path d="M131.95 159.40 c-0.50 -0.95 -0.45 -1 0.55 -0.75 1.35 0.35 2.50 -0.05 2.50 -0.90 0 -0.40 -0.95 -0.75 -2.35 -0.95 -1.35 -0.20 -3.15 -0.50 -4 -0.65 -1.25 -0.20 -1.65 -0.10 -1.65 0.50 0 0.70 1.30 1.60 2.10 1.45 0.20 -0.05 0.25 0.25 0.10 0.60 -0.20 0.60 -0.55 0.50 -1.55 -0.35 -0.65 -0.60 -2.05 -1.35 -3 -1.60 -1.90 -0.55 -2.90 -1.80 -1.30 -1.65 0.50 0 1.35 0 1.90 -0.05 0.85 -0.05 0.90 -0.15 0.25 -0.55 -0.50 -0.30 -0.55 -0.50 -0.10 -0.50 0.30 0 0.70 0.05 0.80 0.15 0.15 0.05 0.75 -0.40 1.40 -1 2.20 -2.05 6.25 -4.10 6.85 -3.50 0.40 0.40 0.70 0.40 1.15 -0.05 0.40 -0.40 0.40 -0.60 0.05 -0.60 -0.30 0 -0.65 -0.45 -0.80 -1 -0.15 -0.55 -0.10 -0.90 0.15 -0.75 0.55 0.35 2.15 -1.60 1.75 -2.20 -0.15 -0.30 -0.05 -0.55 0.25 -0.55 0.30 0 0.45 -0.20 0.25 -0.45 -0.15 -0.25 0.10 -0.85 0.55 -1.30 0.60 -0.60 0.95 -0.65 1.50 -0.20 0.40 0.30 0.70 0.85 0.70 1.25 0 1.15 1.15 3.20 1.80 3.20 0.35 0 0.80 0.50 0.95 1.15 0.85 2.85 0.85 2.85 0.05 2.55 -1.15 -0.45 -1.05 2.25 0.10 3.10 0.80 0.60 0.75 0.65 -0.25 0.70 -0.65 0 -1.15 0.20 -1.15 0.40 0 0.25 -0.60 0.70 -1.35 1.05 -1.35 0.60 -5.15 3 -5.65 3.60 -0.80 0.90 -2.05 0.85 -2.55 -0.15z m2.05 -4.15 c0 -0.50 -0.50 -0.75 -1.50 -0.75 -0.80 0 -1.50 0.20 -1.50 0.45 0 0.40 0.50 0.60 2.65 1 0.20 0 0.35 -0.30 0.35 -0.70z m7.05 -6.35 c0.35 -0.60 0.20 -0.85 -0.60 -1.05 -0.60 -0.15 -0.90 -0.50 -0.75 -0.75 0.15 -0.30 0.15 -0.85 0 -1.30 -0.40 -1 -1.75 -0.35 -2.90 1.45 -0.65 0.95 -0.70 1.50 -0.35 1.95 0.75 0.90 4.05 0.70 4.60 -0.30z"/>
  <path d="M108.30 143.45 c0.15 -0.30 0 -0.75 -0.35 -1 -1.20 -0.70 0.15 -1.45 1.80 -1 1.45 0.35 1.45 0.40 0.40 0.75 -0.65 0.20 -1.15 0.70 -1.15 1.10 0 0.40 -0.25 0.70 -0.55 0.70 -0.25 0 -0.35 -0.25 -0.15 -0.55z"/>
  <path d="M101.20 140.75 c-0.35 -0.90 -2 -1 -2.40 -0.10 -0.25 0.50 -0.35 0.50 -0.60 0 -0.15 -0.35 -0.55 -0.65 -0.95 -0.65 -0.95 0 -1.80 -1.25 -1.45 -2.20 0.20 -0.60 0.50 -0.65 1.20 -0.30 0.50 0.30 1.70 0.50 2.60 0.50 1.45 0 3.95 0.95 2.65 1 -0.25 0 -0.10 0.30 0.35 0.65 0.75 0.60 0.75 0.70 -0.15 1.25 -0.80 0.50 -1.05 0.50 -1.25 -0.15z"/>
  <path d="M133.80 140.90 c0.25 -0.75 0 -0.90 -1.25 -0.90 -1.85 0 -2.05 -0.95 -0.40 -2.30 0.60 -0.50 0.95 -0.75 0.75 -0.50 -0.40 0.50 0.75 1.80 1.55 1.80 0.75 0 0.70 0.65 -0.20 1.80 -0.65 0.80 -0.70 0.80 -0.45 0.10z"/>
  <path d="M112.40 125.70 c-0.95 -0.30 -1.10 -0.65 -0.50 -1.45 0.50 -0.75 4.75 -0.60 5.55 0.15 0.35 0.35 0.55 0.80 0.40 0.95 -0.40 0.40 -4.40 0.65 -5.45 0.35z"/>
  <path d="M150.65 124.25 c-0.85 -0.95 -0.80 -1.25 0.10 -1.25 0.40 0 0.75 0.45 0.75 1 0 1.15 -0.05 1.20 -0.85 0.25z"/>
  <path d="M73.55 112.40 c0.05 -1.10 0.15 -1.30 0.30 -0.65 0.15 0.55 0.50 1.30 0.75 1.65 0.40 0.45 0.30 0.60 -0.30 0.60 -0.60 0 -0.80 -0.45 -0.75 -1.60z"/>
  <path d="M153.70 113.20 c-0.60 -0.25 -0.40 -2.05 0.35 -3 0.25 -0.30 0.30 -0.70 0.10 -0.85 -0.15 -0.20 0.10 -0.35 0.65 -0.35 0.75 0 1 0.40 1.10 1.55 0.05 0.85 -0.15 1.90 -0.45 2.25 -0.60 0.75 -0.80 0.80 -1.75 0.40z"/>
  <path d="M162.20 111.95 c-0.15 -0.25 0.30 -0.45 1 -0.45 1.55 0 1.70 0.30 0.30 0.65 -0.55 0.15 -1.15 0.05 -1.30 -0.20z"/>
  <path d="M67 111.25 c0.25 -0.35 0.35 -0.70 0.20 -0.90 -0.15 -0.15 0.20 -0.15 0.75 0 1.65 0.45 1.70 1 0.05 1.25 -1.10 0.15 -1.35 0.05 -1 -0.35z"/>
  <path d="M73.25 109.45 c-0.20 -0.55 -0.20 -1.15 -0.05 -1.30 0.15 -0.20 0.30 -0.05 0.30 0.25 0 0.35 0.35 0.60 0.75 0.60 0.95 0 1 0.80 0.05 1.15 -0.45 0.20 -0.85 -0.10 -1.05 -0.70z"/>
  <path d="M95 107.50 c1 -0.65 2.15 -0.65 1.75 0 -0.15 0.30 -0.80 0.50 -1.40 0.50 -0.90 0 -0.95 -0.10 -0.35 -0.50z"/>
  <path d="M134.25 107.05 c0.20 -0.60 0 -1.50 -0.45 -2.15 -1.10 -1.55 -1 -2.15 0.50 -2.80 0.70 -0.35 1.15 -0.40 0.95 -0.10 -0.15 0.25 0.10 0.50 0.60 0.50 1.25 0 2.95 1.25 2.30 1.65 -0.30 0.20 -0.80 0 -1.15 -0.40 -0.80 -0.95 -1.70 -0.95 -2.50 0 -0.50 0.55 -0.45 0.85 0.15 1.45 0.40 0.40 0.90 0.60 1.10 0.40 0.20 -0.20 0.15 0.15 -0.20 0.75 -0.80 1.55 -1.75 2.05 -1.30 0.70z"/>
  <path d="M92.20 104.90 c-0.20 -0.30 -0.40 -1.05 -0.50 -1.65 -0.05 -0.90 0.10 -1.10 0.85 -0.90 0.50 0.15 0.95 0 0.95 -0.30 0 -0.50 0.60 -0.30 2.45 0.85 0.40 0.20 -2.10 2.60 -2.75 2.60 -0.35 0 -0.80 -0.25 -1 -0.60z"/>
  <path d="M65.55 92.65 c-0.05 -0.60 -0.35 -1.20 -0.65 -1.35 -0.35 -0.15 -0.05 -0.20 0.65 -0.05 0.70 0.10 1.70 -0.10 2.25 -0.45 0.65 -0.50 1.30 -0.55 2.20 -0.20 l1.25 0.45 -1.25 0.70 c-0.70 0.40 -1.85 0.70 -2.60 0.75 -0.70 0 -1.45 0.30 -1.55 0.65 -0.15 0.30 -0.30 0.10 -0.30 -0.50z"/>
  <path d="M90 91.15 c0.05 -0.80 1.25 -1.90 2.25 -2.05 0.55 -0.05 1.60 -0.20 2.35 -0.30 2.05 -0.35 2.25 0.60 0.30 1.40 -2.30 0.95 -4.90 1.45 -4.90 0.95z"/>
  <path d="M135.25 90.45 l-2.50 -0.85 2.05 -0.05 c1.30 -0.05 2.30 0.25 2.70 0.70 0.95 1.15 0.50 1.20 -2.25 0.20z"/>
  <path d="M166.05 78.15 c0.05 -1.90 0.20 -2.75 0.30 -1.95 0.15 0.80 0.50 1.75 0.90 2.10 0.80 0.80 0.40 3.20 -0.55 3.20 -0.55 0 -0.70 -0.80 -0.65 -3.35z"/>
  <path d="M166.05 71.65 c-0.05 -2.50 0.10 -3.15 0.70 -3.15 0.45 0 0.75 0.45 0.75 1.15 0 0.60 0.15 1.60 0.30 2.25 0.25 0.80 0.10 1.10 -0.45 1.10 -0.45 0 -0.90 0.40 -1 0.90 -0.15 0.45 -0.25 -0.55 -0.30 -2.25z"/>
  <path d="M102.50 71.55 c0 -0.25 0.35 -0.70 0.75 -1.05 0.65 -0.50 0.75 -0.45 0.75 0.45 0 0.60 -0.30 1.05 -0.75 1.05 -0.40 0 -0.75 -0.20 -0.75 -0.45z"/>
  <path d="M105.50 67.20 c0 -1 0.25 -1.20 1.50 -1.20 1.35 0 1.45 0.10 1.05 0.95 -0.30 0.50 -0.45 1 -0.30 1.10 0.10 0.10 -0.40 0.25 -1.05 0.25 -0.95 0.10 -1.20 -0.15 -1.20 -1.10z"/>
  <path d="M107.15 63.85 c0.25 -0.75 1.85 -1.10 1.85 -0.45 0 0.25 -0.45 0.60 -1.05 0.75 -0.65 0.15 -0.95 0.05 -0.80 -0.30z"/>
  <path d="M65.85 60.65 c0.50 -0.80 1.15 -1.60 1.50 -1.80 0.90 -0.55 0.80 -1.50 -0.10 -1.15 -0.40 0.15 -0.75 0.05 -0.75 -0.20 0 -0.30 0.20 -0.50 0.40 -0.50 0.25 0 0.70 -0.55 1.10 -1.20 0.35 -0.70 0.90 -1.10 1.30 -0.95 0.55 0.20 0.55 0.55 -0.15 1.70 -0.65 1.15 -0.75 1.60 -0.30 1.85 1 0.60 0.20 2.55 -0.90 2.25 -0.55 -0.15 -1.05 0.05 -1.25 0.55 -0.15 0.45 -0.65 0.80 -1 0.80 -0.60 0 -0.55 -0.25 0.15 -1.35z"/>
  <path d="M163.30 60.35 c-0.10 -0.50 -0.10 -0.80 0.05 -0.65 0.15 0.15 0.70 0.05 1.20 -0.25 0.60 -0.30 0.95 -0.30 0.95 0 0 0.25 0.15 0.80 0.30 1.25 0.25 0.60 0 0.75 -0.95 0.70 -0.80 -0.05 -1.40 -0.50 -1.55 -1.05z"/>
  <path d="M110.75 54.85 c-0.60 -1.40 0.65 -3.85 2.05 -3.85 0.85 0 1.20 0.30 1.20 1 0 0.65 -0.25 0.90 -0.75 0.70 -0.45 -0.20 -0.75 0 -0.75 0.50 0 0.45 -0.20 0.80 -0.45 0.80 -0.25 0 -0.55 0.40 -0.70 0.90 -0.20 0.80 -0.20 0.80 -0.60 -0.05z"/>
  <path d="M70.10 54 c-0.50 -0.85 -0.50 -1 0.15 -1 0.40 0 0.75 0.45 0.75 1 0 0.55 -0.05 1 -0.15 1 -0.05 0 -0.40 -0.45 -0.75 -1z"/>
  <path d="M112.25 54.50 c0.15 -0.25 0.65 -0.50 1.05 -0.50 0.40 0 0.70 0.25 0.70 0.50 0 0.30 -0.45 0.50 -1.05 0.50 -0.55 0 -0.85 -0.20 -0.70 -0.50z"/>
  <path d="M161.90 54.40 c0.45 -0.45 0.75 -0.45 1.20 0 0.45 0.45 0.35 0.60 -0.60 0.60 -0.95 0 -1.05 -0.15 -0.60 -0.60z"/>
  <path d="M85.40 28.95 c-0.50 -0.35 -0.50 -0.45 0 -0.45 0.30 0 0.60 -0.40 0.60 -0.90 0 -1.40 1 -2.15 1.80 -1.35 1.15 1.10 0.85 2.60 -0.50 2.85 -0.70 0.15 -1.55 0.05 -1.90 -0.15z"/>
  <path d="M106.40 28.10 c-1.55 -0.30 -0.95 -0.90 1 -0.95 1 0 1.50 0.10 1.10 0.25 -0.40 0.15 -0.85 0.40 -1 0.55 -0.15 0.20 -0.65 0.25 -1.10 0.15z"/>
  <path d="M109.65 27.35 c0.20 -0.65 13.35 -0.90 13.35 -0.25 0 0.20 0.70 0.25 1.50 0.15 0.85 -0.10 1.40 0 1.25 0.25 -0.25 0.45 -2.55 0.35 -9.50 -0.30 -1.70 -0.20 -3.90 -0.05 -4.95 0.20 -1.40 0.40 -1.80 0.40 -1.65 -0.05z"/>
  <path d="M127.85 27.15 c-0.10 -0.50 -0.40 -1.30 -0.60 -1.85 -0.35 -0.80 -0.30 -0.85 0.65 -0.35 0.75 0.40 1.05 1 1 1.80 -0.15 1.45 -0.65 1.65 -1.05 0.40z"/>
  <path d="M124.50 23.55 c0 -0.30 0.35 -0.55 0.80 -0.55 0.40 0 0.65 -0.20 0.50 -0.40 -0.15 -0.25 0.05 -0.45 0.45 -0.45 0.40 0 0.75 0.30 0.75 0.70 0 0.35 -0.20 0.65 -0.45 0.65 -0.25 0 -0.80 0.15 -1.25 0.30 -0.45 0.15 -0.80 0.05 -0.80 -0.25z"/>
  <path d="M123.30 22.20 c0.15 -1.65 0.90 -2.40 1.95 -2 0.70 0.25 0.70 0.40 -0.20 1.40 -0.60 0.60 -1.05 1.25 -1.05 1.50 0 0.20 -0.20 0.40 -0.45 0.40 -0.20 0 -0.35 -0.60 -0.25 -1.30z"/>
  <path d="M91 22.55 c0 -0.40 -0.35 -0.55 -1 -0.40 -0.55 0.15 -1 0.05 -1 -0.20 0 -0.25 0.25 -0.45 0.55 -0.45 0.25 0 0.35 -0.20 0.20 -0.50 -0.70 -1.10 0.40 -1.55 1.35 -0.55 0.70 0.80 0.80 1.25 0.45 1.95 -0.35 0.55 -0.50 0.65 -0.55 0.15z"/>
  <path d="M111.80 14.20 c-0.60 -0.60 -0.80 -0.60 -0.80 -0.10 -0.05 0.45 -0.25 0.35 -0.70 -0.25 -0.40 -0.50 -0.80 -0.70 -0.85 -0.45 -0.10 0.25 -0.95 0.60 -1.80 0.75 -1.40 0.25 -1.65 0.15 -1.65 -0.60 0 -0.50 -0.35 -0.90 -0.75 -0.90 -0.40 0 -0.75 0.45 -0.75 1.05 0 1 0 1 -0.70 0 -0.65 -0.85 -0.65 -1 0.10 -1.25 0.45 -0.20 1.40 -0.25 2.10 -0.20 0.70 0.10 1.65 -0.10 2.20 -0.35 0.65 -0.35 0.80 -0.35 0.60 0.05 -0.25 0.35 0.35 0.55 1.85 0.55 2 0 2.25 0.15 2.45 1.25 0.30 1.45 -0.20 1.60 -1.30 0.45z"/>
 </g>
 <g fill="#000000">
  <path d="M41.30 204.25 c-2.60 -0.90 -5 -3.35 -6.40 -6.45 -0.95 -2.20 -1.15 -3.40 -1.15 -8.30 0 -4.95 0.15 -6.10 1.15 -8.25 2.25 -4.90 5.70 -7.20 10.70 -7.25 2.95 0 4.80 0.55 6.90 2.15 l1.25 0.95 0.60 -1.45 c0.50 -1.20 0.60 -0.55 0.60 4.60 -0.05 5.80 -0.40 6.20 -1.20 1.25 -0.60 -4.10 -3.60 -6.65 -7.85 -6.70 -3.05 -0.05 -4.75 1.20 -6.65 4.95 -1.40 2.85 -1.50 3.30 -1.50 9.25 0 7.25 0.70 10.20 2.95 12.75 1.90 2.20 4.35 2.90 7.05 2 2.45 -0.85 4 -2.40 5.95 -5.75 l1.55 -2.75 0.15 1.95 c0.15 1.50 -0.15 2.30 -1.25 3.75 -2.95 3.65 -8.10 5 -12.85 3.30z"/>
  <path d="M63.70 204.10 c-4.50 -2.15 -6.90 -7.05 -6.90 -14.35 0 -7.55 2.30 -12.50 6.85 -14.80 1.65 -0.85 2.70 -1 5.85 -0.85 5.20 0.20 7.30 1.55 9.60 6.25 1.60 3.25 1.65 3.60 1.65 9.40 0 5.75 -0.10 6.20 -1.50 9 -1 2 -2.25 3.45 -3.65 4.50 -1.90 1.30 -2.70 1.50 -6 1.65 -2.95 0.10 -4.30 -0.10 -5.90 -0.80z m9.15 -1.15 c2.95 -2.80 4.40 -8.10 4 -14.75 -0.45 -8.45 -3 -13.05 -7.35 -13.55 -4.50 -0.50 -7.55 3.35 -8.55 10.70 -1.05 7.95 0.85 15.60 4.55 18.05 2.25 1.50 5.45 1.30 7.35 -0.45z"/>
  <path d="M91.35 204.30 c-4.95 -1.35 -7.85 -6.05 -8.25 -13.40 -0.65 -12.90 7.55 -20.30 17.20 -15.40 1.60 0.80 3 1.50 3.05 1.50 0.05 0 0.35 -0.75 0.60 -1.60 0.35 -1.25 0.45 -0.20 0.50 4.50 0.05 6.40 -0.60 8.15 -1.15 3.15 -0.60 -5.20 -3.60 -8.05 -8.50 -8.05 -2.20 0 -2.65 0.20 -4.25 1.90 -2.40 2.50 -3.10 4.75 -3.40 11.10 -0.50 10.10 2.40 16 7.85 16 3.40 0 6.95 -3 7.70 -6.50 0.25 -1.05 -0.10 -1.55 -2.30 -3.25 -4.55 -3.50 -6.10 -4.45 -8.40 -5.05 l-2.25 -0.55 1.60 -0.85 c0.90 -0.45 2.10 -0.80 2.75 -0.80 1.70 0.05 4.85 1.60 7.80 3.95 l2.60 2.05 -0.05 5.90 c-0.05 3.20 -0.20 5.30 -0.30 4.60 -0.35 -2 -1 -2.30 -2.35 -1.05 -1.20 1.15 -5.20 2.60 -7 2.50 -0.60 0 -2.15 -0.30 -3.45 -0.65z"/>
  <path d="M107.20 203.75 l1.30 -1.20 0 -13.05 0 -13.05 -1.30 -1.20 -1.35 -1.25 4.65 0 4.65 0 -1.35 1.25 -1.30 1.20 0 13.05 0 13.05 1.30 1.20 1.35 1.25 -4.65 0 -4.65 0 1.35 -1.25z"/>
  <path d="M121.25 203.80 l1.50 -1.20 0 -13 c0 -13.90 -0.10 -14.60 -2.55 -14.60 -1.55 0 -2.70 1.80 -3.45 5.40 l-0.65 2.85 -0.05 -4.60 -0.05 -4.65 8.50 0 8.50 0 -0.05 4.65 -0.05 4.60 -0.60 -2.80 c-0.30 -1.55 -1 -3.40 -1.45 -4.15 -1.05 -1.55 -3.05 -1.75 -3.85 -0.35 -0.30 0.60 -0.50 5.90 -0.50 13.80 l0 12.80 1.30 1.20 1.35 1.25 -4.70 0 -4.70 0 1.50 -1.20z"/>
  <path d="M132.90 203.65 c1.50 -1.30 1.80 -2.20 4.65 -13.15 1.65 -6.45 3.05 -12.40 3.05 -13.20 0.05 -0.95 -0.35 -1.75 -1.15 -2.35 -1.20 -0.90 -1.15 -0.95 3.50 -0.95 4.55 0 4.65 0.05 3.90 0.90 -0.50 0.50 -0.85 1.40 -0.85 1.95 0 1.15 5.70 22.55 6.60 24.85 0.30 0.75 1.25 1.85 2.10 2.35 l1.55 0.95 -4.60 0 c-4.35 0 -5.80 -0.45 -3.85 -1.20 0.70 -0.25 0.80 -0.80 0.55 -2.95 -0.15 -1.40 -0.55 -3.45 -0.85 -4.45 l-0.55 -1.90 -4.65 0 -4.70 0 -0.80 3.25 c-1.05 4.20 -1 5 0.30 6.25 l1.10 1 -3.45 0 -3.45 0 1.60 -1.35z m13.60 -10.50 c-0.10 -1.55 -4.45 -15.75 -4.70 -15.15 -0.30 0.85 -3.80 14.80 -3.80 15.20 0 0.20 1.90 0.30 4.25 0.30 2.35 0 4.25 -0.15 4.25 -0.35z"/>
  <path d="M158.70 203.75 l1.30 -1.20 0 -13.25 0 -13.25 -1.30 -1 -1.35 -1.05 6.25 0 c5.45 0 6.45 0.15 8.40 1.15 2.95 1.45 4.50 3.80 4.50 6.80 0 4.80 -3 7.75 -7.85 7.75 -2.90 0 -3.35 0.35 -1.40 1.10 0.75 0.30 2.50 2.50 4.85 6.20 2.25 3.50 4.30 6.15 5.40 6.90 l1.70 1.15 -3.45 -0.15 -3.50 -0.15 -3.80 -6.90 c-2.10 -3.75 -3.95 -7 -4.10 -7.20 -0.20 -0.15 -0.35 2.45 -0.35 5.80 0 5.95 0.05 6.15 1.30 7.30 l1.35 1.25 -4.65 0 -4.65 0 1.35 -1.25z m11.40 -15.30 c1.30 -0.70 2.90 -4.25 2.90 -6.60 0 -4.30 -2.40 -6.80 -6.65 -7 l-2.10 -0.10 -0.15 7.15 -0.15 7.10 2.55 0 c1.40 0 3 -0.25 3.60 -0.55z"/>
  <path d="M180.65 203.95 l1.35 -1.05 0 -13.40 0 -13.45 -1.30 -1 -1.35 -1.05 9.35 0 9.30 0 -0.05 4.65 -0.05 4.60 -0.65 -2.85 c-0.30 -1.55 -1 -3.40 -1.45 -4.10 -0.80 -1.25 -1.05 -1.30 -5.30 -1.30 l-4.50 0 0 15 0 15 -3.35 0 -3.40 -0.05 1.40 -1z"/>
  <path d="M193 204.50 c0 -0.25 0.45 -0.50 1 -0.50 1.30 0 2.30 -1.65 3.20 -5.25 l0.70 -3 0.05 4.65 0.05 4.60 -2.50 0 c-1.35 0 -2.50 -0.20 -2.50 -0.50z"/>
  <path d="M194.50 190.70 c0 -2.05 -1.20 -4.70 -2.10 -4.70 -0.50 0 -0.90 -0.20 -0.90 -0.50 0 -0.25 0.30 -0.50 0.70 -0.50 0.95 0 1.30 -0.60 2.05 -3.45 0.65 -2.20 0.65 -2.05 0.70 3.85 0.05 3.35 -0.05 6.10 -0.20 6.10 -0.15 0 -0.25 -0.35 -0.25 -0.80z"/>
 </g>
</svg>